<svg width="332" height="86" viewBox="0 0 332 86" fill="none" xmlns="http://www.w3.org/2000/svg">
<path d="M299.77 0L331.799 84.2695H310.718L304.257 65.9238H275.087L268.395 84.2695H247.784L279.813 0H299.77ZM280.503 1L249.233 83.2695H267.695L274.388 64.9238H304.965L311.426 83.2695H330.35L299.08 1H280.503ZM300.58 51.7695H278.772L289.733 21.1924L300.58 51.7695ZM280.193 50.7695H299.164L289.728 24.1699L280.193 50.7695Z" fill="white"/>
<path d="M209.578 51.0771C215.347 51.0771 219.27 52.2315 221.578 54.4238C223.886 56.7315 225.271 60.6547 225.963 66.4238L225.984 66.9229C226.028 67.6638 226.137 69.1349 226.31 71.3848C226.54 74.3848 226.771 76.8081 227.117 78.6543C227.334 80.3848 227.752 81.9126 228.374 83.1426L228.502 83.3848H247.193C246.588 82.8799 246.159 82.1982 245.752 81.2627L245.578 80.8467C245.117 79.6928 244.771 78.1925 244.54 76.5771C244.309 74.8464 244.078 73.3462 243.963 72.1924C243.79 71.327 243.682 70.2021 243.59 68.8662L243.502 67.4619C243.271 65.385 243.271 64.2309 243.271 63.8848C242.232 52.5772 238.194 46.1161 231.155 44.7314C235.068 43.1666 238.222 40.7353 240.514 37.333L240.732 37C242.896 33.6467 244.045 29.7863 244.181 25.4189L244.193 24.5391C244.193 16.6929 241.54 10.8077 236.463 7C231.433 3.19967 224.995 1.34836 217.255 1.23633L216.502 1.23145L175.655 1.11523V83.2695H193.54V51.0771H209.578ZM225.54 26.5C225.54 22.3264 224.239 19.872 221.91 18.6104L221.896 18.6025L221.882 18.5947C219.33 17.1061 215.956 16.4239 211.425 16.4238H194.54V37.1543H210.617V38.1543H193.54V15.4238H211.425C216.04 15.4239 219.617 16.1161 222.386 17.7314C225.155 19.2314 226.54 22.1156 226.54 26.5L226.535 26.9287C226.444 31.302 224.953 34.1666 222.271 35.7314L221.738 36.0244C219.007 37.4442 215.269 38.1543 210.617 38.1543V37.1543C215.493 37.1543 219.214 36.3564 221.767 34.8672C224.129 33.489 225.54 30.8922 225.54 26.5ZM245.193 24.5391C245.193 29.4398 243.995 33.7859 241.572 37.542C239.628 40.5559 237.06 42.8635 233.953 44.5293C236.548 45.6003 238.671 47.4573 240.309 50.0537C242.444 53.4395 243.74 58.0557 244.267 63.7939L244.271 63.8389V63.8848C244.271 64.1635 244.27 65.0528 244.421 66.6318L244.495 67.3516L244.498 67.377L244.5 67.4033C244.616 69.3817 244.729 70.9235 244.943 71.9961L244.953 72.0449L244.958 72.0928C245.071 73.2234 245.296 74.6765 245.53 76.4355L245.619 77.0186C245.839 78.3578 246.139 79.5548 246.507 80.4746C246.949 81.5804 247.335 82.2004 247.834 82.6162L249.956 84.3848H227.908L227.624 83.8643C226.863 82.4682 226.378 80.7436 226.134 78.8389L226.006 78.0967C225.718 76.3051 225.514 74.0836 225.312 71.4619C225.1 68.6968 224.982 67.0528 224.967 66.5215C224.281 60.8218 222.931 57.1936 220.875 55.1348C218.845 53.2169 215.247 52.0771 209.578 52.0771H194.54V84.2695H174.655V0.113281L216.504 0.231445C224.728 0.231664 231.65 2.11213 237.062 6.2002C242.444 10.2363 245.193 16.4504 245.193 24.5391Z" fill="white"/>
<path d="M106.978 50.2695V1.11523H88.9775V50.2695L88.9854 51.3643C89.1533 62.5839 91.9267 70.9848 97.5156 76.4619C103.105 81.9391 111.617 84.7092 123.264 84.877L124.4 84.8848C136.4 84.8847 145.169 82.1156 150.823 76.5771C156.477 71.0387 159.361 62.2692 159.361 50.5V1.11523H141.361V50.2695L141.358 50.8916C141.282 57.2701 140.021 62.0244 137.785 65.1543L137.562 65.4521C135.201 68.4842 130.891 70 124.631 70V69C130.974 69 134.944 67.4098 136.971 64.5732C139.106 61.5836 140.361 56.8631 140.361 50.2695V0.115234H160.361V50.5C160.361 62.4096 157.445 71.4914 151.523 77.292C145.606 83.0882 136.531 85.8847 124.4 85.8848C112.042 85.8848 102.849 83.089 96.8154 77.1758C90.7757 71.2567 87.9775 62.1722 87.9775 50.2695V0.115234H107.978V50.2695C107.978 56.8679 109.235 61.5621 111.571 64.5361C113.827 67.407 118.054 69 124.631 69V70C118.148 70 113.614 68.4841 111.029 65.4521L110.785 65.1543C108.326 62.0244 107.057 57.2701 106.98 50.8916L106.978 50.2695Z" fill="white"/>
<path d="M51.9854 0L84.0146 84.2695H62.9346L56.4727 65.9238H27.3027L20.6113 84.2695H0L32.0293 0H51.9854ZM32.7188 1L1.4502 83.2695H19.9111L26.6035 64.9238H57.1807L63.6426 83.2695H82.5654L51.2959 1H32.7188ZM52.7959 51.7695H30.9883L41.9502 21.1924L52.7959 51.7695ZM32.4092 50.7695H51.3799L41.9443 24.1699L32.4092 50.7695Z" fill="white"/>
</svg>
