<svg width="549" height="154" viewBox="0 0 549 154" fill="none" xmlns="http://www.w3.org/2000/svg">
<path d="M248.267 124.623C247.312 124.623 246.436 124.411 245.639 123.986C244.896 123.615 244.18 123.11 243.489 122.473C242.534 121.571 241.472 120.376 240.304 118.89C239.136 117.404 237.915 115.811 236.641 114.112C235.42 112.361 234.253 110.662 233.138 109.016C232.076 107.317 231.174 105.831 230.43 104.557C230.059 104.557 229.634 104.53 229.156 104.477C228.679 104.424 228.227 104.345 227.803 104.238C227.006 103.973 226.608 103.708 226.608 103.442C226.608 103.23 226.768 103.071 227.086 102.964C227.405 102.858 227.75 102.779 228.121 102.726C229.873 102.46 231.996 102.089 234.491 101.611C236.986 101.08 239.535 100.39 242.136 99.5404C244.79 98.638 247.258 97.6028 249.541 96.4349C251.877 95.214 253.761 93.8072 255.195 92.2146C256.628 90.569 257.345 88.711 257.345 86.6407C257.345 84.995 256.867 83.6148 255.911 82.5C254.956 81.3852 253.708 80.4828 252.169 79.7927C250.682 79.0495 249.063 78.4921 247.312 78.1205C245.56 77.7489 243.861 77.51 242.215 77.4039C240.623 77.2446 239.269 77.165 238.154 77.165C235.394 77.165 232.368 77.4835 229.077 78.1205C225.785 78.7575 222.547 79.5804 219.362 80.589C216.177 81.5976 213.364 82.7124 210.922 83.9333C210.868 83.9864 210.762 84.0395 210.603 84.0926C210.497 84.1457 210.391 84.1722 210.285 84.1722C209.966 84.1722 209.807 83.9599 209.807 83.5352C209.807 82.4735 210.391 81.5445 211.559 80.7482C212.726 79.8989 214.239 79.1557 216.097 78.5186C218.008 77.8816 220.052 77.3508 222.229 76.9261C224.405 76.4483 226.529 76.0767 228.599 75.8113C230.722 75.5459 232.58 75.3601 234.173 75.2539C235.819 75.0946 236.986 75.015 237.677 75.015C239.163 75.015 240.888 75.1212 242.852 75.3335C244.817 75.4928 246.807 75.8378 248.824 76.3687C250.895 76.8465 252.806 77.5631 254.558 78.5186C256.309 79.4742 257.716 80.6951 258.778 82.1815C259.893 83.6148 260.45 85.4197 260.45 87.5962C260.45 90.2505 259.654 92.5597 258.061 94.5239C256.469 96.488 254.398 98.1337 251.85 99.4608C249.355 100.788 246.648 101.85 243.728 102.646C240.862 103.389 238.154 103.92 235.606 104.238C236.19 105.725 236.986 107.503 237.995 109.574C239.057 111.644 240.225 113.661 241.499 115.625C242.773 117.589 244.047 119.235 245.321 120.562C246.648 121.836 247.816 122.473 248.824 122.473C249.727 122.473 250.417 122.155 250.895 121.518C251.426 120.828 251.797 119.978 252.01 118.97C252.222 117.961 252.355 116.979 252.408 116.023C252.461 115.015 252.487 114.192 252.487 113.555V113.077C252.487 112.599 252.62 112.361 252.885 112.361C253.363 112.361 253.788 112.652 254.16 113.236C254.531 113.82 254.823 114.457 255.035 115.147C255.248 115.838 255.354 116.368 255.354 116.74C255.46 118.067 255.195 119.341 254.558 120.562C253.921 121.73 253.045 122.686 251.93 123.429C250.815 124.225 249.594 124.623 248.267 124.623ZM217.371 127.171C216.204 127.171 215.381 126.747 214.903 125.897C214.425 125.101 214.186 124.119 214.186 122.951C214.186 121.199 214.584 119.076 215.381 116.581C216.177 114.033 217.186 111.352 218.407 108.538C219.681 105.672 221.034 102.858 222.468 100.098C223.901 97.3374 225.255 94.7893 226.529 92.4535C227.856 90.1178 228.944 88.2333 229.793 86.7999C230.43 85.6852 231.094 84.4907 231.784 83.2167C232.474 81.8896 233.217 80.7217 234.014 79.7131C234.279 79.3415 234.73 79.1026 235.367 78.9964C236.004 78.8902 236.509 78.8372 236.88 78.8372C237.305 78.8372 237.783 78.9433 238.314 79.1557C238.844 79.3149 239.11 79.6865 239.11 80.2705V80.4297C239.11 81.1198 238.818 81.8099 238.234 82.5C235.845 86.3753 233.456 90.0912 231.067 93.6479C228.732 97.2047 226.529 101.027 224.458 105.114C223.981 105.964 223.317 107.185 222.468 108.777C221.618 110.317 220.716 112.015 219.76 113.873C218.858 115.731 218.115 117.563 217.531 119.368C216.947 121.12 216.708 122.659 216.814 123.986C216.814 124.252 216.867 124.544 216.973 124.862C217.133 125.181 217.398 125.34 217.77 125.34C218.035 125.34 218.168 125.579 218.168 126.057C218.168 126.322 218.088 126.561 217.929 126.773C217.823 127.039 217.637 127.171 217.371 127.171ZM261.383 122.553C258.198 122.553 256.605 120.987 256.605 117.855C256.605 116.634 256.923 115.227 257.561 113.635C258.251 111.989 259.153 110.343 260.268 108.698C261.383 107.052 262.63 105.539 264.01 104.159C265.391 102.726 266.797 101.584 268.231 100.735C269.717 99.8324 271.097 99.3812 272.371 99.3812C272.796 99.3812 273.088 99.4873 273.247 99.6997C273.46 99.8589 273.619 100.151 273.725 100.576C273.831 100.788 273.911 101.027 273.964 101.292C274.017 101.558 274.097 101.823 274.203 102.089C274.415 102.46 274.601 102.832 274.76 103.203C274.919 103.575 274.999 103.973 274.999 104.398C274.999 104.929 274.866 105.406 274.601 105.831C274.335 106.203 274.017 106.548 273.645 106.866C273.115 107.344 272.318 107.954 271.257 108.698C270.195 109.388 269.027 110.104 267.753 110.848C266.532 111.538 265.338 112.148 264.17 112.679C263.055 113.21 262.152 113.528 261.462 113.635C260.985 114.378 260.48 115.307 259.949 116.422C259.472 117.483 259.233 118.465 259.233 119.368C259.233 119.846 259.339 120.27 259.551 120.642C259.817 121.013 260.215 121.199 260.746 121.199C261.595 121.199 262.71 120.801 264.09 120.005C265.523 119.155 267.01 118.147 268.549 116.979C270.089 115.758 271.495 114.59 272.769 113.475C274.097 112.307 275.079 111.405 275.716 110.768L278.264 108.061C278.582 107.742 278.927 107.583 279.299 107.583C279.617 107.583 279.777 107.716 279.777 107.981C279.777 108.299 279.325 108.963 278.423 109.972C277.521 110.927 276.432 112.015 275.158 113.236C273.937 114.404 272.796 115.493 271.734 116.501C270.673 117.457 269.982 118.067 269.664 118.333C268.549 119.288 267.275 120.244 265.842 121.199C264.409 122.102 262.922 122.553 261.383 122.553ZM262.816 111.564C263.347 111.246 264.143 110.741 265.205 110.051C266.32 109.361 267.461 108.591 268.629 107.742C269.797 106.893 270.779 106.043 271.575 105.194C272.424 104.345 272.849 103.601 272.849 102.964C272.849 102.805 272.823 102.672 272.769 102.566C272.716 102.513 272.61 102.487 272.451 102.487C271.761 102.487 270.938 102.858 269.982 103.601C269.027 104.345 268.071 105.247 267.116 106.309C266.16 107.317 265.284 108.326 264.488 109.335C263.745 110.29 263.188 111.033 262.816 111.564ZM288.597 123.986C288.12 123.986 287.562 123.774 286.925 123.349C286.341 122.978 285.81 122.526 285.333 121.995C284.855 121.412 284.616 120.881 284.616 120.403C284.616 119.766 284.828 118.943 285.253 117.934C285.678 116.926 286.209 115.864 286.846 114.749C287.483 113.581 288.093 112.52 288.677 111.564C289.314 110.609 289.792 109.865 290.11 109.335C289.686 109.865 289.022 110.688 288.12 111.803C287.217 112.865 286.209 114.059 285.094 115.386C284.032 116.66 282.917 117.908 281.749 119.129C280.635 120.297 279.599 121.279 278.644 122.075C277.688 122.818 276.919 123.19 276.335 123.19C275.963 123.19 275.326 122.845 274.424 122.155C273.574 121.412 273.15 120.297 273.15 118.81C273.15 117.589 273.521 116.103 274.264 114.351C275.061 112.599 276.096 110.794 277.37 108.937C278.644 107.025 280.024 105.247 281.51 103.601C283.05 101.956 284.563 100.629 286.049 99.62C287.589 98.6114 288.969 98.1071 290.19 98.1071C291.145 98.1071 292.074 98.4256 292.977 99.0626C293.879 99.6466 294.41 100.735 294.569 102.327C295.737 100.788 296.905 99.3015 298.073 97.8682C299.294 96.3818 300.993 94.4442 303.169 92.0554C303.435 91.7369 303.939 91.1795 304.682 90.3832C305.425 89.5338 306.275 88.6314 307.23 87.6759C308.186 86.6672 309.115 85.7648 310.017 84.9685C310.973 84.1191 311.769 83.5883 312.406 83.3759C312.672 83.2698 313.202 83.429 313.999 83.8537C314.795 84.2253 315.193 84.7031 315.193 85.287C315.193 85.6055 315.06 85.8975 314.795 86.1629C314.476 86.5345 313.919 87.0919 313.123 87.8351C312.38 88.5783 311.53 89.3746 310.575 90.2239C309.619 91.0733 308.717 91.8696 307.867 92.6128C307.071 93.3029 306.514 93.8603 306.195 94.285C301.736 99.0096 297.914 103.522 294.729 107.822C291.544 112.122 289.42 115.917 288.358 119.209C288.093 120.005 287.96 120.562 287.96 120.881C287.96 121.358 288.093 121.597 288.358 121.597C288.571 121.597 288.836 121.491 289.155 121.279C289.473 121.013 289.845 120.721 290.27 120.403C291.119 119.713 292.074 118.863 293.136 117.855C294.251 116.846 295.339 115.811 296.401 114.749C297.463 113.688 298.392 112.732 299.188 111.883C300.037 110.98 300.621 110.343 300.94 109.972C301.046 109.865 301.152 109.759 301.258 109.653C301.417 109.494 301.577 109.414 301.736 109.414C302.108 109.414 302.293 109.6 302.293 109.972C302.293 110.184 301.869 110.821 301.019 111.883C300.17 112.891 299.108 114.086 297.834 115.466C296.56 116.793 295.26 118.12 293.932 119.447C292.605 120.721 291.437 121.81 290.429 122.712C289.473 123.562 288.863 123.986 288.597 123.986ZM277.131 120.403C277.343 120.403 277.582 120.27 277.848 120.005C280.555 117.669 283.13 115.121 285.572 112.361C288.067 109.6 290.402 106.787 292.579 103.92C292.313 103.389 291.942 102.964 291.464 102.646C291.039 102.274 290.535 102.089 289.951 102.089C288.889 102.089 287.721 102.54 286.447 103.442C285.226 104.345 284.085 105.38 283.023 106.548C281.962 107.662 281.112 108.591 280.475 109.335C279.52 110.503 278.591 112.015 277.688 113.873C276.839 115.678 276.414 117.351 276.414 118.89C276.414 119.899 276.653 120.403 277.131 120.403ZM303.063 122.553C299.878 122.553 298.285 120.987 298.285 117.855C298.285 116.634 298.604 115.227 299.241 113.635C299.931 111.989 300.833 110.343 301.948 108.698C303.063 107.052 304.31 105.539 305.691 104.159C307.071 102.726 308.478 101.584 309.911 100.735C311.397 99.8324 312.777 99.3812 314.052 99.3812C314.476 99.3812 314.768 99.4873 314.927 99.6997C315.14 99.8589 315.299 100.151 315.405 100.576C315.511 100.788 315.591 101.027 315.644 101.292C315.697 101.558 315.777 101.823 315.883 102.089C316.095 102.46 316.281 102.832 316.44 103.203C316.6 103.575 316.679 103.973 316.679 104.398C316.679 104.929 316.547 105.406 316.281 105.831C316.016 106.203 315.697 106.548 315.326 106.866C314.795 107.344 313.998 107.954 312.937 108.698C311.875 109.388 310.707 110.104 309.433 110.848C308.212 111.538 307.018 112.148 305.85 112.679C304.735 113.21 303.833 113.528 303.143 113.635C302.665 114.378 302.16 115.307 301.63 116.422C301.152 117.483 300.913 118.465 300.913 119.368C300.913 119.846 301.019 120.27 301.231 120.642C301.497 121.013 301.895 121.199 302.426 121.199C303.275 121.199 304.39 120.801 305.77 120.005C307.204 119.155 308.69 118.147 310.229 116.979C311.769 115.758 313.176 114.59 314.45 113.475C315.777 112.307 316.759 111.405 317.396 110.768L319.944 108.061C320.263 107.742 320.608 107.583 320.979 107.583C321.298 107.583 321.457 107.716 321.457 107.981C321.457 108.299 321.006 108.963 320.103 109.972C319.201 110.927 318.113 112.015 316.839 113.236C315.618 114.404 314.476 115.493 313.415 116.501C312.353 117.457 311.663 118.067 311.344 118.333C310.229 119.288 308.955 120.244 307.522 121.199C306.089 122.102 304.602 122.553 303.063 122.553ZM304.496 111.564C305.027 111.246 305.823 110.741 306.885 110.051C308 109.361 309.141 108.591 310.309 107.742C311.477 106.893 312.459 106.043 313.255 105.194C314.105 104.345 314.529 103.601 314.529 102.964C314.529 102.805 314.503 102.672 314.45 102.566C314.397 102.513 314.29 102.487 314.131 102.487C313.441 102.487 312.618 102.858 311.663 103.601C310.707 104.345 309.752 105.247 308.796 106.309C307.841 107.317 306.965 108.326 306.168 109.335C305.425 110.29 304.868 111.033 304.496 111.564ZM315.546 142.539C311.99 142.539 310.211 140.655 310.211 136.886C310.211 135.081 310.663 132.692 311.565 129.719C312.892 125.526 314.591 121.385 316.661 117.297C318.785 113.21 321.12 109.228 323.668 105.353H320.085C319.342 105.353 318.97 105.194 318.97 104.875C318.97 104.504 319.342 104.106 320.085 103.681C320.882 103.256 321.731 103.044 322.633 103.044H325.181C326.243 101.451 327.331 99.8589 328.446 98.2664C329.561 96.6738 330.702 95.1078 331.87 93.5683C333.834 90.9141 335.905 88.3394 338.081 85.8444C340.258 83.2963 342.434 81.226 344.611 79.6334C346.84 77.9878 348.937 77.165 350.901 77.165C351.804 77.165 352.627 77.3508 353.37 77.7224C354.962 78.4125 355.759 79.4742 355.759 80.9075C355.759 81.7568 355.387 82.7389 354.644 83.8537C353.901 84.9154 352.918 85.579 351.698 85.8444C351.591 85.8975 351.459 85.924 351.299 85.924C351.034 85.924 350.901 85.8179 350.901 85.6055C350.901 85.287 351.299 84.65 352.096 83.6945C353.051 82.4735 353.529 81.4118 353.529 80.5093C353.529 79.4476 352.972 78.9168 351.857 78.9168C351.007 78.9168 349.893 79.3415 348.512 80.1908C347.132 80.9871 345.54 82.3673 343.735 84.3315C341.293 87.145 338.957 90.1178 336.727 93.2498C334.551 96.3288 332.374 99.5935 330.198 103.044H341.107C342.7 103.044 344.266 102.858 345.805 102.487C347.398 102.115 348.831 101.69 350.105 101.213C351.379 100.735 352.388 100.31 353.131 99.9386C353.874 99.567 354.193 99.3812 354.086 99.3812C354.405 99.3812 354.883 99.4608 355.52 99.62C356.21 99.7262 356.767 99.9386 357.192 100.257C357.67 100.576 357.749 100.974 357.431 101.451C357.059 102.035 356.422 102.991 355.52 104.318C354.617 105.645 353.582 107.158 352.414 108.857C351.299 110.556 350.185 112.281 349.07 114.033C348.008 115.731 347.132 117.271 346.442 118.651C345.752 120.031 345.407 121.066 345.407 121.757C345.407 122.075 345.513 122.234 345.725 122.234C346.044 122.234 346.575 121.942 347.318 121.358C348.114 120.775 348.884 120.164 349.627 119.527C350.423 118.837 350.954 118.386 351.22 118.173C352.759 116.846 354.272 115.493 355.759 114.112C357.245 112.679 358.652 111.193 359.979 109.653C360.085 109.547 360.218 109.388 360.377 109.175C360.589 108.963 360.802 108.857 361.014 108.857C361.279 108.857 361.412 109.016 361.412 109.335C361.412 109.706 361.279 110.078 361.014 110.449C360.324 111.299 359.554 112.148 358.705 112.998C357.855 113.794 357.059 114.59 356.316 115.386C354.936 116.767 353.582 118.147 352.255 119.527C350.981 120.854 349.707 122.234 348.433 123.668C348.167 123.986 347.822 124.278 347.398 124.544C347.026 124.809 346.628 124.942 346.203 124.942C345.354 124.942 344.558 124.597 343.814 123.907C343.124 123.216 342.7 122.473 342.54 121.677C342.7 120.668 343.151 119.315 343.894 117.616C344.69 115.917 345.593 114.139 346.601 112.281C347.61 110.37 348.592 108.591 349.548 106.946C350.503 105.3 351.246 104.053 351.777 103.203C349.972 103.787 348.061 104.292 346.044 104.716C344.08 105.141 341.85 105.353 339.355 105.353H329.641C329.747 105.459 329.826 105.513 329.879 105.513C332.481 105.725 334.339 106.654 335.453 108.299C336.568 109.945 337.126 111.962 337.126 114.351C337.126 116.528 336.701 118.89 335.852 121.438C335.055 123.986 333.94 126.508 332.507 129.003C331.127 131.498 329.508 133.754 327.65 135.771C325.792 137.841 323.828 139.487 321.757 140.708C319.687 141.929 317.617 142.539 315.546 142.539ZM358.944 93.2498C357.723 93.2498 357.112 92.7986 357.112 91.8961C357.112 91.2591 357.457 90.569 358.147 89.8258C358.837 89.0826 359.846 88.5518 361.173 88.2333C361.97 88.0209 362.607 87.9147 363.084 87.9147C363.615 87.8617 364.119 87.7555 364.597 87.5962C364.385 88.6048 363.934 89.6931 363.244 90.861C362.607 92.0288 361.757 92.7455 360.695 93.0109C360.165 93.1702 359.581 93.2498 358.944 93.2498ZM317.298 140.628C318.201 140.628 319.103 140.416 320.006 139.991C320.908 139.62 321.651 139.195 322.235 138.717C323.722 137.496 325.155 135.957 326.535 134.099C327.968 132.294 329.269 130.303 330.437 128.127C331.605 126.003 332.534 123.853 333.224 121.677C333.914 119.447 334.259 117.377 334.259 115.466C334.259 113.449 333.808 111.697 332.905 110.211C332.056 108.724 330.623 107.636 328.605 106.946C328.552 106.946 328.499 106.946 328.446 106.946C328.393 106.893 328.313 106.866 328.207 106.866L326.455 108.618C325.234 110.529 323.748 112.891 321.996 115.705C320.244 118.465 318.652 121.332 317.219 124.305C316.9 124.942 316.422 125.95 315.785 127.331C315.148 128.764 314.564 130.277 314.034 131.869C313.556 133.515 313.317 135.028 313.317 136.408C313.317 137.576 313.609 138.558 314.193 139.354C314.777 140.204 315.812 140.628 317.298 140.628ZM374.032 124.145C373.236 124.145 372.333 123.907 371.325 123.429C370.369 123.004 369.891 122.314 369.891 121.358C369.891 120.244 370.316 118.917 371.165 117.377C372.015 115.838 373.023 114.245 374.191 112.599C375.359 110.901 376.474 109.282 377.536 107.742C378.65 106.203 379.447 104.902 379.924 103.84C379.606 104 379.075 104.318 378.332 104.796C377.642 105.221 376.952 105.672 376.261 106.15C375.571 106.574 375.067 106.919 374.749 107.185C372.466 108.883 370.475 110.635 368.776 112.44C367.131 114.245 365.459 116.315 363.76 118.651C363.335 119.288 362.884 119.952 362.406 120.642C361.982 121.332 361.53 121.995 361.053 122.633C360.84 122.898 360.469 123.163 359.938 123.429C359.46 123.694 359.009 123.827 358.584 123.827C357.894 123.827 357.549 123.455 357.549 122.712C357.549 122.075 357.867 121.093 358.504 119.766C359.195 118.439 360.044 116.926 361.053 115.227C362.061 113.528 363.123 111.856 364.238 110.211C365.352 108.512 366.361 106.999 367.264 105.672C368.166 104.292 368.803 103.309 369.175 102.726C369.068 102.885 368.776 103.177 368.299 103.601C367.821 103.973 367.343 104.371 366.865 104.796C366.441 105.167 366.122 105.433 365.91 105.592C364.901 106.548 363.919 107.53 362.964 108.538C362.008 109.547 361.053 110.556 360.097 111.564C359.991 111.67 359.778 111.83 359.46 112.042C359.195 112.254 358.956 112.361 358.743 112.361C358.478 112.361 358.345 112.228 358.345 111.962C358.345 111.697 358.717 111.14 359.46 110.29C360.203 109.441 361.132 108.432 362.247 107.264C363.362 106.096 364.503 104.902 365.671 103.681C366.892 102.46 367.954 101.372 368.856 100.416C369.759 99.4608 370.369 98.7972 370.688 98.4256C371.218 97.7355 371.776 97.1781 372.36 96.7534C372.997 96.3288 373.74 96.1164 374.589 96.1164C375.067 96.1164 375.651 96.3553 376.341 96.8331C377.031 97.2577 377.376 97.7621 377.376 98.346C377.376 98.5583 377.323 98.691 377.217 98.7441C375.624 100.071 374.058 101.637 372.519 103.442C371.033 105.247 369.626 107.105 368.299 109.016C366.972 110.927 365.751 112.706 364.636 114.351C365.91 112.918 367.343 111.511 368.936 110.131C370.528 108.698 372.068 107.37 373.554 106.15L379.208 101.531C379.579 101.213 379.951 100.868 380.322 100.496C380.747 100.124 381.145 99.8058 381.517 99.5404C381.942 99.275 382.393 99.1688 382.871 99.2219C383.401 99.2219 383.932 99.2219 384.463 99.2219C385.047 99.2219 385.604 99.3812 386.135 99.6997C386.719 100.018 387.011 100.522 387.011 101.213C387.011 101.903 386.825 102.434 386.454 102.805C386.135 103.124 385.764 103.495 385.339 103.92C384.437 104.769 383.322 105.884 381.995 107.264C380.721 108.645 379.447 110.131 378.173 111.723C376.898 113.316 375.837 114.935 374.987 116.581C374.138 118.173 373.713 119.66 373.713 121.04C373.713 121.199 373.713 121.358 373.713 121.518C373.713 121.677 373.74 121.836 373.793 121.995C374.908 121.571 376.129 120.881 377.456 119.925C378.836 118.917 380.216 117.802 381.597 116.581C382.977 115.36 384.251 114.139 385.419 112.918C386.64 111.697 387.648 110.609 388.445 109.653C388.551 109.547 388.657 109.414 388.763 109.255C388.922 109.096 389.108 109.016 389.32 109.016C389.586 109.016 389.719 109.202 389.719 109.574C389.719 109.786 389.639 110.025 389.48 110.29C388.471 111.617 387.117 113.183 385.419 114.988C383.72 116.793 381.968 118.518 380.163 120.164C378.358 121.757 376.739 122.978 375.306 123.827C374.934 124.039 374.51 124.145 374.032 124.145ZM390.389 122.553C387.204 122.553 385.612 120.987 385.612 117.855C385.612 116.634 385.93 115.227 386.567 113.635C387.257 111.989 388.16 110.343 389.274 108.698C390.389 107.052 391.637 105.539 393.017 104.159C394.397 102.726 395.804 101.584 397.237 100.735C398.724 99.8324 400.104 99.3812 401.378 99.3812C401.803 99.3812 402.095 99.4873 402.254 99.6997C402.466 99.8589 402.625 100.151 402.732 100.576C402.838 100.788 402.917 101.027 402.97 101.292C403.023 101.558 403.103 101.823 403.209 102.089C403.422 102.46 403.607 102.832 403.767 103.203C403.926 103.575 404.006 103.973 404.006 104.398C404.006 104.929 403.873 105.406 403.607 105.831C403.342 106.203 403.023 106.548 402.652 106.866C402.121 107.344 401.325 107.954 400.263 108.698C399.201 109.388 398.033 110.104 396.759 110.848C395.538 111.538 394.344 112.148 393.176 112.679C392.061 113.21 391.159 113.528 390.469 113.635C389.991 114.378 389.487 115.307 388.956 116.422C388.478 117.483 388.239 118.465 388.239 119.368C388.239 119.846 388.345 120.27 388.558 120.642C388.823 121.013 389.221 121.199 389.752 121.199C390.602 121.199 391.716 120.801 393.097 120.005C394.53 119.155 396.016 118.147 397.556 116.979C399.095 115.758 400.502 114.59 401.776 113.475C403.103 112.307 404.085 111.405 404.722 110.768L407.27 108.061C407.589 107.742 407.934 107.583 408.305 107.583C408.624 107.583 408.783 107.716 408.783 107.981C408.783 108.299 408.332 108.963 407.43 109.972C406.527 110.927 405.439 112.015 404.165 113.236C402.944 114.404 401.803 115.493 400.741 116.501C399.679 117.457 398.989 118.067 398.671 118.333C397.556 119.288 396.282 120.244 394.848 121.199C393.415 122.102 391.929 122.553 390.389 122.553ZM391.823 111.564C392.353 111.246 393.15 110.741 394.211 110.051C395.326 109.361 396.467 108.591 397.635 107.742C398.803 106.893 399.785 106.043 400.582 105.194C401.431 104.345 401.856 103.601 401.856 102.964C401.856 102.805 401.829 102.672 401.776 102.566C401.723 102.513 401.617 102.487 401.457 102.487C400.767 102.487 399.945 102.858 398.989 103.601C398.033 104.345 397.078 105.247 396.122 106.309C395.167 107.317 394.291 108.326 393.495 109.335C392.751 110.29 392.194 111.033 391.823 111.564ZM424.721 124.066C423.819 124.066 422.731 123.721 421.457 123.031C420.182 122.341 419.307 121.597 418.829 120.801C418.51 120.27 418.351 119.633 418.351 118.89C418.351 117.191 418.962 114.935 420.182 112.122C421.457 109.255 423.049 106.176 424.96 102.885C425.81 101.398 426.898 99.6731 428.225 97.709C429.605 95.7448 431.145 93.7276 432.843 91.6573C434.542 89.5338 436.32 87.5166 438.178 85.6055C440.089 83.6945 441.974 82.0223 443.832 80.589C445.743 79.1557 447.548 78.147 449.247 77.5631C449.937 77.2977 450.547 77.165 451.078 77.165C452.087 77.165 452.777 77.51 453.148 78.2001C453.573 78.8372 454.131 79.368 454.821 79.7927C455.245 80.0581 455.458 80.4828 455.458 81.0667C455.458 82.2877 454.794 83.7475 453.467 85.4463C452.14 87.145 450.415 88.9499 448.291 90.861C446.168 92.772 443.885 94.6831 441.443 96.5942C439.001 98.4522 436.639 100.177 434.356 101.77C432.127 103.363 430.216 104.69 428.623 105.751C427.03 106.813 426.022 107.477 425.597 107.742C424.801 109.228 424.058 110.927 423.368 112.838C422.677 114.749 422.332 116.554 422.332 118.253C422.332 118.89 422.412 119.607 422.571 120.403C422.784 121.146 423.315 121.518 424.164 121.518C424.96 121.518 425.889 121.226 426.951 120.642C428.013 120.058 429.048 119.421 430.056 118.731C431.065 117.988 431.861 117.377 432.445 116.899C433.825 115.785 435.046 114.643 436.108 113.475C437.17 112.307 438.417 110.98 439.851 109.494C439.957 109.388 440.063 109.308 440.169 109.255C440.275 109.149 440.408 109.096 440.567 109.096C440.886 109.096 441.045 109.282 441.045 109.653C441.045 109.972 440.912 110.264 440.647 110.529C438.523 112.865 436.294 115.28 433.958 117.775C431.675 120.27 429.127 122.234 426.314 123.668C425.783 123.933 425.252 124.066 424.721 124.066ZM428.145 103.601C428.942 103.336 430.056 102.699 431.49 101.69C432.923 100.629 434.515 99.3812 436.267 97.9479C438.072 96.5146 439.877 95.0016 441.682 93.4091C443.54 91.7634 445.239 90.1974 446.778 88.711C448.371 87.1715 449.671 85.871 450.68 84.8093C451.742 83.6945 452.352 82.9247 452.511 82.5C452.618 82.1815 452.671 81.9692 452.671 81.863C452.671 81.4383 452.458 81.1464 452.034 80.9871C451.662 80.8279 451.237 80.7482 450.76 80.7482C450.494 80.7482 450.229 80.7748 449.963 80.8279C449.698 80.8809 449.459 80.934 449.247 80.9871C448.344 81.3056 447.15 82.1019 445.663 83.3759C444.177 84.5969 442.584 86.1098 440.886 87.9147C439.187 89.6666 437.488 91.5245 435.79 93.4887C434.144 95.4528 432.631 97.3374 431.251 99.1423C429.924 100.894 428.888 102.38 428.145 103.601ZM455.33 93.2498C454.109 93.2498 453.499 92.7986 453.499 91.8961C453.499 91.2591 453.844 90.569 454.534 89.8258C455.224 89.0826 456.233 88.5518 457.56 88.2333C458.356 88.0209 458.993 87.9147 459.471 87.9147C460.002 87.8617 460.506 87.7555 460.984 87.5962C460.771 88.6048 460.32 89.6931 459.63 90.861C458.993 92.0288 458.144 92.7455 457.082 93.0109C456.551 93.1702 455.967 93.2498 455.33 93.2498ZM442.59 124.942C441.74 124.942 440.944 124.597 440.201 123.907C439.511 123.216 439.086 122.473 438.927 121.677C439.086 120.668 439.431 119.447 439.962 118.014C440.546 116.528 441.209 114.988 441.953 113.396C442.696 111.803 443.439 110.317 444.182 108.937C444.925 107.503 445.562 106.362 446.093 105.513C445.085 106.415 443.996 107.424 442.829 108.538C441.714 109.653 440.652 110.688 439.643 111.644C439.59 111.697 439.458 111.803 439.245 111.962C439.086 112.122 438.927 112.201 438.768 112.201C438.396 112.201 438.21 112.042 438.21 111.723C438.21 111.458 438.316 111.219 438.529 111.007C439.962 109.414 441.448 107.822 442.988 106.229C444.58 104.637 446.12 102.991 447.606 101.292C448.084 100.708 448.482 100.257 448.801 99.9386C449.172 99.567 449.73 99.3812 450.473 99.3812C450.791 99.3812 451.269 99.4608 451.906 99.62C452.596 99.7262 453.154 99.9386 453.578 100.257C454.056 100.576 454.136 100.974 453.817 101.451C453.446 102.035 452.809 102.991 451.906 104.318C451.004 105.645 449.969 107.158 448.801 108.857C447.686 110.556 446.571 112.281 445.456 114.033C444.395 115.731 443.519 117.271 442.829 118.651C442.138 120.031 441.793 121.066 441.793 121.757C441.793 122.075 441.9 122.234 442.112 122.234C442.43 122.234 442.961 121.942 443.704 121.358C444.501 120.775 445.27 120.164 446.014 119.527C446.81 118.837 447.341 118.386 447.606 118.173C449.146 116.846 450.659 115.493 452.145 114.112C453.631 112.679 455.038 111.193 456.365 109.653C456.471 109.547 456.604 109.388 456.763 109.175C456.976 108.963 457.188 108.857 457.4 108.857C457.666 108.857 457.799 109.016 457.799 109.335C457.799 109.706 457.666 110.078 457.4 110.449C456.71 111.299 455.941 112.148 455.091 112.998C454.242 113.794 453.446 114.59 452.702 115.386C451.322 116.767 449.969 118.147 448.641 119.527C447.367 120.854 446.093 122.234 444.819 123.668C444.554 123.986 444.209 124.278 443.784 124.544C443.412 124.809 443.014 124.942 442.59 124.942ZM455.966 122.951C455.117 122.792 454.506 122.712 454.134 122.712C453.816 122.712 453.365 122.287 452.781 121.438C452.728 121.332 452.675 121.199 452.622 121.04C452.622 120.881 452.622 120.748 452.622 120.642C452.622 119.846 452.86 118.678 453.338 117.138C453.869 115.599 454.479 113.953 455.17 112.201C455.913 110.449 456.629 108.83 457.32 107.344C458.01 105.804 458.541 104.61 458.912 103.761C459.018 103.548 459.071 103.389 459.071 103.283C459.071 103.017 458.912 102.885 458.594 102.885C458.328 102.832 458.195 102.619 458.195 102.248C458.461 101.823 458.806 101.292 459.231 100.655C459.708 100.018 460.213 99.4608 460.744 98.983C461.327 98.5053 461.885 98.2664 462.416 98.2664C462.84 98.2664 463.398 98.5849 464.088 99.2219C464.778 99.8058 465.123 100.31 465.123 100.735C465.123 100.788 465.097 100.841 465.043 100.894C465.043 100.894 465.043 100.921 465.043 100.974C464.247 101.823 463.424 102.991 462.575 104.477C461.726 105.964 460.929 107.583 460.186 109.335C459.443 111.033 458.806 112.706 458.275 114.351C457.797 115.997 457.479 117.404 457.32 118.571C459.815 116.236 462.389 113.794 465.043 111.246C467.698 108.645 470.007 105.99 471.971 103.283C472.13 102.327 472.263 101.451 472.369 100.655C472.528 99.8058 472.847 98.8238 473.325 97.709C473.59 97.125 473.935 96.6473 474.36 96.2757C474.785 95.851 475.315 95.6386 475.952 95.6386C476.536 95.6386 477.067 95.8244 477.545 96.196C478.076 96.5676 478.341 97.0454 478.341 97.6293C478.341 98.3195 478.076 98.9565 477.545 99.5404C477.014 100.124 476.483 100.868 475.952 101.77C475.422 102.672 475.156 103.946 475.156 105.592V105.911C475.156 106.123 475.13 106.388 475.077 106.707C475.023 107.025 474.864 107.185 474.599 107.185C474.227 107.185 473.829 106.972 473.404 106.548C472.98 106.123 472.741 105.725 472.688 105.353C469.98 108.379 467.273 111.405 464.566 114.431C461.858 117.404 458.992 120.244 455.966 122.951ZM490.09 93.2498C488.869 93.2498 488.258 92.7986 488.258 91.8961C488.258 91.2591 488.603 90.569 489.293 89.8258C489.983 89.0826 490.992 88.5518 492.319 88.2333C493.115 88.0209 493.752 87.9147 494.23 87.9147C494.761 87.8617 495.265 87.7555 495.743 87.5962C495.531 88.6048 495.08 89.6931 494.389 90.861C493.752 92.0288 492.903 92.7455 491.841 93.0109C491.311 93.1702 490.727 93.2498 490.09 93.2498ZM477.349 124.942C476.5 124.942 475.703 124.597 474.96 123.907C474.27 123.216 473.845 122.473 473.686 121.677C473.845 120.668 474.191 119.447 474.721 118.014C475.305 116.528 475.969 114.988 476.712 113.396C477.455 111.803 478.198 110.317 478.942 108.937C479.685 107.503 480.322 106.362 480.853 105.513C479.844 106.415 478.756 107.424 477.588 108.538C476.473 109.653 475.411 110.688 474.403 111.644C474.35 111.697 474.217 111.803 474.005 111.962C473.845 112.122 473.686 112.201 473.527 112.201C473.155 112.201 472.97 112.042 472.97 111.723C472.97 111.458 473.076 111.219 473.288 111.007C474.721 109.414 476.208 107.822 477.747 106.229C479.34 104.637 480.879 102.991 482.366 101.292C482.843 100.708 483.242 100.257 483.56 99.9386C483.932 99.567 484.489 99.3812 485.232 99.3812C485.551 99.3812 486.029 99.4608 486.666 99.62C487.356 99.7262 487.913 99.9386 488.338 100.257C488.816 100.576 488.895 100.974 488.577 101.451C488.205 102.035 487.568 102.991 486.666 104.318C485.763 105.645 484.728 107.158 483.56 108.857C482.445 110.556 481.33 112.281 480.216 114.033C479.154 115.731 478.278 117.271 477.588 118.651C476.898 120.031 476.553 121.066 476.553 121.757C476.553 122.075 476.659 122.234 476.871 122.234C477.19 122.234 477.721 121.942 478.464 121.358C479.26 120.775 480.03 120.164 480.773 119.527C481.569 118.837 482.1 118.386 482.366 118.173C483.905 116.846 485.418 115.493 486.904 114.112C488.391 112.679 489.798 111.193 491.125 109.653C491.231 109.547 491.364 109.388 491.523 109.175C491.735 108.963 491.948 108.857 492.16 108.857C492.425 108.857 492.558 109.016 492.558 109.335C492.558 109.706 492.425 110.078 492.16 110.449C491.47 111.299 490.7 112.148 489.851 112.998C489.001 113.794 488.205 114.59 487.462 115.386C486.082 116.767 484.728 118.147 483.401 119.527C482.127 120.854 480.853 122.234 479.579 123.668C479.313 123.986 478.968 124.278 478.544 124.544C478.172 124.809 477.774 124.942 477.349 124.942ZM505.138 124.145C504.342 124.145 503.439 123.907 502.431 123.429C501.475 123.004 500.997 122.314 500.997 121.358C500.997 120.244 501.422 118.917 502.271 117.377C503.121 115.838 504.129 114.245 505.297 112.599C506.465 110.901 507.58 109.282 508.642 107.742C509.756 106.203 510.553 104.902 511.03 103.84C510.712 104 510.181 104.318 509.438 104.796C508.748 105.221 508.058 105.672 507.368 106.15C506.677 106.574 506.173 106.919 505.855 107.185C503.572 108.883 501.581 110.635 499.883 112.44C498.237 114.245 496.565 116.315 494.866 118.651C494.441 119.288 493.99 119.952 493.512 120.642C493.088 121.332 492.636 121.995 492.159 122.633C491.946 122.898 491.575 123.163 491.044 123.429C490.566 123.694 490.115 123.827 489.69 123.827C489 123.827 488.655 123.455 488.655 122.712C488.655 122.075 488.974 121.093 489.611 119.766C490.301 118.439 491.15 116.926 492.159 115.227C493.167 113.528 494.229 111.856 495.344 110.211C496.459 108.512 497.467 106.999 498.37 105.672C499.272 104.292 499.909 103.309 500.281 102.726C500.175 102.885 499.883 103.177 499.405 103.601C498.927 103.973 498.449 104.371 497.971 104.796C497.547 105.167 497.228 105.433 497.016 105.592C496.007 106.548 495.025 107.53 494.07 108.538C493.114 109.547 492.159 110.556 491.203 111.564C491.097 111.67 490.885 111.83 490.566 112.042C490.301 112.254 490.062 112.361 489.849 112.361C489.584 112.361 489.451 112.228 489.451 111.962C489.451 111.697 489.823 111.14 490.566 110.29C491.309 109.441 492.238 108.432 493.353 107.264C494.468 106.096 495.609 104.902 496.777 103.681C497.998 102.46 499.06 101.372 499.962 100.416C500.865 99.4608 501.475 98.7972 501.794 98.4256C502.324 97.7355 502.882 97.1781 503.466 96.7534C504.103 96.3288 504.846 96.1164 505.695 96.1164C506.173 96.1164 506.757 96.3553 507.447 96.8331C508.137 97.2577 508.482 97.7621 508.482 98.346C508.482 98.5583 508.429 98.691 508.323 98.7441C506.731 100.071 505.165 101.637 503.625 103.442C502.139 105.247 500.732 107.105 499.405 109.016C498.078 110.927 496.857 112.706 495.742 114.351C497.016 112.918 498.449 111.511 500.042 110.131C501.634 108.698 503.174 107.37 504.66 106.15L510.314 101.531C510.685 101.213 511.057 100.868 511.429 100.496C511.853 100.124 512.251 99.8058 512.623 99.5404C513.048 99.275 513.499 99.1688 513.977 99.2219C514.508 99.2219 515.038 99.2219 515.569 99.2219C516.153 99.2219 516.711 99.3812 517.241 99.6997C517.825 100.018 518.117 100.522 518.117 101.213C518.117 101.903 517.932 102.434 517.56 102.805C517.241 103.124 516.87 103.495 516.445 103.92C515.543 104.769 514.428 105.884 513.101 107.264C511.827 108.645 510.553 110.131 509.279 111.723C508.005 113.316 506.943 114.935 506.094 116.581C505.244 118.173 504.819 119.66 504.819 121.04C504.819 121.199 504.819 121.358 504.819 121.518C504.819 121.677 504.846 121.836 504.899 121.995C506.014 121.571 507.235 120.881 508.562 119.925C509.942 118.917 511.322 117.802 512.703 116.581C514.083 115.36 515.357 114.139 516.525 112.918C517.746 111.697 518.754 110.609 519.551 109.653C519.657 109.547 519.763 109.414 519.869 109.255C520.028 109.096 520.214 109.016 520.427 109.016C520.692 109.016 520.825 109.202 520.825 109.574C520.825 109.786 520.745 110.025 520.586 110.29C519.577 111.617 518.224 113.183 516.525 114.988C514.826 116.793 513.074 118.518 511.269 120.164C509.464 121.757 507.845 122.978 506.412 123.827C506.04 124.039 505.616 124.145 505.138 124.145ZM501.668 153.767C499.226 153.767 498.005 152.546 498.005 150.104C498.005 149.839 498.032 149.573 498.085 149.308C498.085 149.042 498.111 148.777 498.164 148.512C498.589 146.601 499.491 144.769 500.872 143.017C502.252 141.265 503.871 139.62 505.729 138.08C507.587 136.594 509.498 135.187 511.462 133.86C513.373 132.586 515.099 131.471 516.638 130.516C517.54 129.932 518.682 129.215 520.062 128.366C521.495 127.516 523.008 126.587 524.601 125.579C526.193 124.623 527.706 123.721 529.14 122.871C529.724 121.385 530.228 119.739 530.653 117.934C531.13 116.13 531.343 114.325 531.29 112.52C530.653 113.21 529.803 114.165 528.741 115.386C527.68 116.554 526.512 117.722 525.238 118.89C524.017 120.058 522.769 121.066 521.495 121.916C520.274 122.712 519.186 123.11 518.231 123.11C517.222 123.11 516.452 122.633 515.921 121.677C515.391 120.721 515.125 119.792 515.125 118.89C515.125 117.404 515.55 115.785 516.399 114.033C517.248 112.281 518.39 110.556 519.823 108.857C521.256 107.158 522.822 105.592 524.521 104.159C526.22 102.726 527.919 101.584 529.617 100.735C531.316 99.8855 532.882 99.4608 534.315 99.4608C535.43 99.4608 536.439 99.8589 537.341 100.655C538.244 101.398 538.695 102.354 538.695 103.522C538.695 103.893 538.589 104.292 538.376 104.716C538.217 105.088 537.925 105.274 537.501 105.274C537.129 105.274 536.837 105.141 536.625 104.875C536.412 104.557 536.147 104.265 535.828 104C535.51 103.681 534.952 103.522 534.156 103.522C532.988 103.522 531.714 103.92 530.334 104.716C529.007 105.459 527.759 106.362 526.591 107.424C525.424 108.485 524.442 109.414 523.645 110.211C522.637 111.272 521.655 112.546 520.699 114.033C519.797 115.519 519.08 116.952 518.549 118.333C518.39 118.704 518.231 119.129 518.071 119.607C517.965 120.084 517.912 120.536 517.912 120.96C517.912 121.491 518.098 121.757 518.469 121.757C518.576 121.757 518.682 121.757 518.788 121.757C518.894 121.704 519 121.65 519.106 121.597C520.646 120.96 522.265 119.819 523.964 118.173C525.663 116.528 527.255 114.749 528.741 112.838C530.228 110.874 531.422 109.202 532.325 107.822L532.643 107.344C532.962 106.335 533.652 105.831 534.714 105.831C535.032 105.831 535.351 105.911 535.669 106.07C535.988 106.229 536.147 106.521 536.147 106.946C536.147 109.282 536.041 111.325 535.828 113.077C535.616 114.829 535.112 116.82 534.315 119.049C535.377 118.2 536.359 117.377 537.262 116.581C538.217 115.785 539.146 114.909 540.049 113.953C540.898 113.104 541.694 112.228 542.437 111.325C543.234 110.423 544.057 109.574 544.906 108.777C545.012 108.671 545.118 108.591 545.224 108.538C545.384 108.432 545.543 108.379 545.702 108.379C546.021 108.379 546.18 108.538 546.18 108.857C546.18 109.122 545.782 109.706 544.986 110.609C544.242 111.458 543.287 112.467 542.119 113.635C541.004 114.802 539.81 115.997 538.536 117.218C537.315 118.386 536.2 119.447 535.191 120.403C534.236 121.305 533.572 121.916 533.201 122.234C530.759 128.658 527.574 134.232 523.645 138.956C519.77 143.734 514.833 147.848 508.834 151.299C507.826 151.882 506.685 152.44 505.41 152.971C504.136 153.502 502.889 153.767 501.668 153.767ZM503.499 151.776C504.933 151.776 506.499 151.245 508.197 150.184C509.843 149.175 511.489 147.901 513.134 146.362C514.78 144.822 516.266 143.283 517.594 141.743C518.974 140.257 520.062 139.009 520.858 138.001C521.761 136.78 522.637 135.559 523.486 134.338C524.335 133.17 525.132 131.949 525.875 130.675C526.99 128.817 527.919 127.012 528.662 125.26C528.715 125.101 528.662 124.995 528.503 124.942C528.396 124.942 528.343 124.942 528.343 124.942C526.698 126.11 525.025 127.251 523.327 128.366C521.681 129.534 520.009 130.675 518.31 131.79C517.461 132.321 516.319 133.09 514.886 134.099C513.453 135.161 511.913 136.329 510.268 137.603C508.622 138.93 507.056 140.283 505.57 141.664C504.083 143.097 502.862 144.477 501.907 145.804C500.951 147.184 500.474 148.405 500.474 149.467C500.474 150.316 500.819 150.9 501.509 151.219C502.146 151.591 502.809 151.776 503.499 151.776Z" fill="white"/>
<path d="M299.77 0L331.799 84.2695H310.718L304.257 65.9238H275.087L268.395 84.2695H247.784L279.813 0H299.77ZM280.503 1L249.233 83.2695H267.695L274.388 64.9238H304.965L311.426 83.2695H330.35L299.08 1H280.503ZM300.58 51.7695H278.772L289.733 21.1924L300.58 51.7695ZM280.193 50.7695H299.164L289.728 24.1699L280.193 50.7695Z" fill="white"/>
<path d="M209.578 51.0771C215.347 51.0771 219.27 52.2315 221.578 54.4238C223.886 56.7315 225.271 60.6547 225.963 66.4238L225.984 66.9229C226.028 67.6638 226.137 69.1349 226.31 71.3848C226.54 74.3848 226.771 76.8081 227.117 78.6543C227.334 80.3848 227.752 81.9126 228.374 83.1426L228.502 83.3848H247.193C246.588 82.8799 246.159 82.1982 245.752 81.2627L245.578 80.8467C245.117 79.6928 244.771 78.1925 244.54 76.5771C244.309 74.8464 244.078 73.3462 243.963 72.1924C243.79 71.327 243.682 70.2021 243.59 68.8662L243.502 67.4619C243.271 65.385 243.271 64.2309 243.271 63.8848C242.232 52.5772 238.194 46.1161 231.155 44.7314C235.068 43.1666 238.222 40.7353 240.514 37.333L240.732 37C242.896 33.6467 244.045 29.7863 244.181 25.4189L244.193 24.5391C244.193 16.6929 241.54 10.8077 236.463 7C231.433 3.19967 224.995 1.34836 217.255 1.23633L216.502 1.23145L175.655 1.11523V83.2695H193.54V51.0771H209.578ZM225.54 26.5C225.54 22.3264 224.239 19.872 221.91 18.6104L221.896 18.6025L221.882 18.5947C219.33 17.1061 215.956 16.4239 211.425 16.4238H194.54V37.1543H210.617V38.1543H193.54V15.4238H211.425C216.04 15.4239 219.617 16.1161 222.386 17.7314C225.155 19.2314 226.54 22.1156 226.54 26.5L226.535 26.9287C226.444 31.302 224.953 34.1666 222.271 35.7314L221.738 36.0244C219.007 37.4442 215.269 38.1543 210.617 38.1543V37.1543C215.493 37.1543 219.214 36.3564 221.767 34.8672C224.129 33.489 225.54 30.8922 225.54 26.5ZM245.193 24.5391C245.193 29.4398 243.995 33.7859 241.572 37.542C239.628 40.5559 237.06 42.8635 233.953 44.5293C236.548 45.6003 238.671 47.4573 240.309 50.0537C242.444 53.4395 243.74 58.0557 244.267 63.7939L244.271 63.8389V63.8848C244.271 64.1635 244.27 65.0528 244.421 66.6318L244.495 67.3516L244.498 67.377L244.5 67.4033C244.616 69.3817 244.729 70.9235 244.943 71.9961L244.953 72.0449L244.958 72.0928C245.071 73.2234 245.296 74.6765 245.53 76.4355L245.619 77.0186C245.839 78.3578 246.139 79.5548 246.507 80.4746C246.949 81.5804 247.335 82.2004 247.834 82.6162L249.956 84.3848H227.908L227.624 83.8643C226.863 82.4682 226.378 80.7436 226.134 78.8389L226.006 78.0967C225.718 76.3051 225.514 74.0836 225.312 71.4619C225.1 68.6968 224.982 67.0528 224.967 66.5215C224.281 60.8218 222.931 57.1936 220.875 55.1348C218.845 53.2169 215.247 52.0771 209.578 52.0771H194.54V84.2695H174.655V0.113281L216.504 0.231445C224.728 0.231664 231.65 2.11213 237.062 6.2002C242.444 10.2363 245.193 16.4504 245.193 24.5391Z" fill="white"/>
<path d="M106.978 50.2695V1.11523H88.9775V50.2695L88.9854 51.3643C89.1533 62.5839 91.9267 70.9848 97.5156 76.4619C103.105 81.9391 111.617 84.7092 123.264 84.877L124.4 84.8848C136.4 84.8847 145.169 82.1156 150.823 76.5771C156.477 71.0387 159.361 62.2692 159.361 50.5V1.11523H141.361V50.2695L141.358 50.8916C141.282 57.2701 140.021 62.0244 137.785 65.1543L137.562 65.4521C135.201 68.4842 130.891 70 124.631 70V69C130.974 69 134.944 67.4098 136.971 64.5732C139.106 61.5836 140.361 56.8631 140.361 50.2695V0.115234H160.361V50.5C160.361 62.4096 157.445 71.4914 151.523 77.292C145.606 83.0882 136.531 85.8847 124.4 85.8848C112.042 85.8848 102.849 83.089 96.8154 77.1758C90.7757 71.2567 87.9775 62.1722 87.9775 50.2695V0.115234H107.978V50.2695C107.978 56.8679 109.235 61.5621 111.571 64.5361C113.827 67.407 118.054 69 124.631 69V70C118.148 70 113.614 68.4841 111.029 65.4521L110.785 65.1543C108.326 62.0244 107.057 57.2701 106.98 50.8916L106.978 50.2695Z" fill="white"/>
<path d="M51.9854 0L84.0146 84.2695H62.9346L56.4727 65.9238H27.3027L20.6113 84.2695H0L32.0293 0H51.9854ZM32.7188 1L1.4502 83.2695H19.9111L26.6035 64.9238H57.1807L63.6426 83.2695H82.5654L51.2959 1H32.7188ZM52.7959 51.7695H30.9883L41.9502 21.1924L52.7959 51.7695ZM32.4092 50.7695H51.3799L41.9443 24.1699L32.4092 50.7695Z" fill="white"/>
</svg>
