<svg width="586" height="155" viewBox="0 0 586 155" fill="none" xmlns="http://www.w3.org/2000/svg">
<path d="M394.779 125.354C393.823 125.354 392.947 125.141 392.151 124.717C391.408 124.345 390.691 123.841 390.001 123.204C389.046 122.301 387.984 121.107 386.816 119.62C385.648 118.134 384.427 116.542 383.153 114.843C381.932 113.091 380.764 111.392 379.649 109.747C378.588 108.048 377.685 106.561 376.942 105.287C376.571 105.287 376.146 105.261 375.668 105.208C375.19 105.155 374.739 105.075 374.314 104.969C373.518 104.704 373.12 104.438 373.12 104.173C373.12 103.96 373.279 103.801 373.598 103.695C373.916 103.589 374.261 103.509 374.633 103.456C376.385 103.191 378.508 102.819 381.003 102.341C383.498 101.81 386.046 101.12 388.647 100.271C391.302 99.3684 393.77 98.3333 396.053 97.1654C398.389 95.9444 400.273 94.5377 401.706 92.9451C403.14 91.2995 403.856 89.4415 403.856 87.3712C403.856 85.7255 403.379 84.3453 402.423 83.2305C401.468 82.1157 400.22 81.2133 398.681 80.5232C397.194 79.78 395.575 79.2226 393.823 78.851C392.071 78.4794 390.373 78.2405 388.727 78.1343C387.135 77.9751 385.781 77.8954 384.666 77.8954C381.906 77.8954 378.88 78.2139 375.588 78.851C372.297 79.488 369.059 80.3108 365.874 81.3194C362.689 82.3281 359.875 83.4429 357.433 84.6638C357.38 84.7169 357.274 84.77 357.115 84.8231C357.009 84.8762 356.902 84.9027 356.796 84.9027C356.478 84.9027 356.319 84.6904 356.319 84.2657C356.319 83.204 356.902 82.275 358.07 81.4787C359.238 80.6293 360.751 79.8861 362.609 79.2491C364.52 78.6121 366.564 78.0812 368.74 77.6566C370.917 77.1788 373.04 76.8072 375.111 76.5418C377.234 76.2763 379.092 76.0905 380.685 75.9844C382.33 75.8251 383.498 75.7455 384.188 75.7455C385.675 75.7455 387.4 75.8517 389.364 76.064C391.328 76.2233 393.319 76.5683 395.336 77.0992C397.407 77.5769 399.318 78.2936 401.069 79.2491C402.821 80.2046 404.228 81.4256 405.29 82.912C406.404 84.3453 406.962 86.1502 406.962 88.3267C406.962 90.981 406.166 93.2902 404.573 95.2543C402.98 97.2185 400.91 98.8641 398.362 100.191C395.867 101.518 393.16 102.58 390.24 103.376C387.373 104.12 384.666 104.65 382.118 104.969C382.702 106.455 383.498 108.234 384.507 110.304C385.568 112.374 386.736 114.392 388.01 116.356C389.284 118.32 390.559 119.966 391.833 121.293C393.16 122.567 394.328 123.204 395.336 123.204C396.239 123.204 396.929 122.885 397.407 122.248C397.937 121.558 398.309 120.709 398.521 119.7C398.734 118.691 398.866 117.709 398.919 116.754C398.973 115.745 398.999 114.922 398.999 114.285V113.808C398.999 113.33 399.132 113.091 399.397 113.091C399.875 113.091 400.3 113.383 400.671 113.967C401.043 114.551 401.335 115.188 401.547 115.878C401.76 116.568 401.866 117.099 401.866 117.471C401.972 118.798 401.706 120.072 401.069 121.293C400.432 122.461 399.556 123.416 398.442 124.159C397.327 124.956 396.106 125.354 394.779 125.354ZM363.883 127.902C362.715 127.902 361.892 127.477 361.415 126.628C360.937 125.831 360.698 124.849 360.698 123.681C360.698 121.93 361.096 119.806 361.892 117.311C362.689 114.763 363.697 112.082 364.918 109.269C366.192 106.402 367.546 103.589 368.979 100.828C370.413 98.0678 371.766 95.5198 373.04 93.184C374.368 90.8482 375.456 88.9637 376.305 87.5304C376.942 86.4156 377.606 85.2212 378.296 83.9472C378.986 82.62 379.729 81.4522 380.525 80.4435C380.791 80.0719 381.242 79.8331 381.879 79.7269C382.516 79.6207 383.02 79.5676 383.392 79.5676C383.817 79.5676 384.294 79.6738 384.825 79.8861C385.356 80.0454 385.622 80.417 385.622 81.0009V81.1602C385.622 81.8503 385.33 82.5404 384.746 83.2305C382.357 87.1057 379.968 90.8217 377.579 94.3784C375.243 97.9351 373.04 101.757 370.97 105.845C370.492 106.694 369.829 107.915 368.979 109.508C368.13 111.047 367.228 112.746 366.272 114.604C365.37 116.462 364.626 118.293 364.042 120.098C363.458 121.85 363.22 123.39 363.326 124.717C363.326 124.982 363.379 125.274 363.485 125.593C363.644 125.911 363.91 126.07 364.281 126.07C364.547 126.07 364.679 126.309 364.679 126.787C364.679 127.052 364.6 127.291 364.441 127.504C364.334 127.769 364.149 127.902 363.883 127.902ZM432.499 127.344C431.862 127.344 431.199 127.185 430.509 126.867C429.872 126.601 429.235 126.23 428.598 125.752C427.908 125.168 427.244 124.345 426.607 123.283C425.97 122.222 425.439 121.107 425.014 119.939L424.616 118.585C422.493 120.231 420.131 121.664 417.529 122.885C414.981 124.053 412.221 124.637 409.248 124.637C407.337 124.637 405.877 124.027 404.869 122.806C403.913 121.532 403.435 120.125 403.435 118.585C403.435 117.364 403.754 115.958 404.391 114.365C405.081 112.719 405.983 111.074 407.098 109.428C408.213 107.782 409.46 106.27 410.841 104.889C412.221 103.456 413.628 102.315 415.061 101.465C416.547 100.563 417.927 100.112 419.202 100.112C419.626 100.112 419.918 100.218 420.077 100.43C420.29 100.589 420.449 100.881 420.555 101.306C420.661 101.518 420.741 101.757 420.794 102.023C420.847 102.288 420.927 102.554 421.033 102.819C421.245 103.191 421.431 103.562 421.59 103.934C421.75 104.305 421.829 104.704 421.829 105.128C421.829 105.659 421.697 106.137 421.431 106.561C421.166 106.933 420.847 107.278 420.476 107.597C419.945 108.074 419.148 108.685 418.087 109.428C417.025 110.118 415.857 110.835 414.583 111.578C413.362 112.268 412.168 112.879 411 113.409C409.885 113.94 408.983 114.259 408.293 114.365C408.08 114.577 407.762 115.267 407.337 116.435C406.912 117.603 406.7 118.771 406.7 119.939C406.7 120.788 406.912 121.532 407.337 122.169C407.762 122.806 408.558 123.124 409.726 123.124C412.274 123.124 414.742 122.567 417.131 121.452C419.52 120.337 421.935 118.798 424.377 116.833V116.674C424.006 116.409 423.501 116.09 422.864 115.719C422.28 115.294 421.989 114.604 421.989 113.648C421.989 112.534 422.334 111.445 423.024 110.384C423.714 109.322 424.298 108.791 424.775 108.791C425.147 108.791 425.333 109.11 425.333 109.747C425.333 109.959 425.333 110.49 425.333 111.339C425.386 112.135 425.413 112.958 425.413 113.808C425.466 114.657 425.519 115.321 425.572 115.798C426.74 114.843 427.881 113.808 428.996 112.693C430.164 111.578 431.358 110.437 432.579 109.269L437.834 103.934C438.1 103.35 438.365 102.846 438.631 102.421C439.48 100.934 440.515 99.7666 441.736 98.9172C443.01 98.0148 444.364 97.5635 445.797 97.5635C446.859 97.5635 447.602 97.7493 448.027 98.1209C448.452 98.4925 448.664 98.9172 448.664 99.395C448.664 99.8727 448.452 100.324 448.027 100.749C447.655 101.12 447.098 101.306 446.355 101.306C445.187 101.253 444.099 101.28 443.09 101.386C442.134 101.492 441.444 101.863 441.02 102.5C440.595 103.191 440.17 104.358 439.746 106.004C439.374 107.597 439.002 109.402 438.631 111.419C438.312 113.436 437.994 115.4 437.675 117.311C438.79 117.099 439.852 116.833 440.86 116.515C441.922 116.143 443.063 115.533 444.284 114.684C445.505 113.834 446.912 112.587 448.505 110.941C448.77 110.623 449.035 110.463 449.301 110.463C449.46 110.463 449.54 110.569 449.54 110.782C449.54 110.888 449.487 111.074 449.381 111.339C449.274 111.605 449.062 111.95 448.743 112.374C448.106 113.224 447.31 114.073 446.355 114.922C445.452 115.719 444.656 116.329 443.966 116.754C442.533 117.603 441.179 118.134 439.905 118.346C438.631 118.506 437.808 118.612 437.436 118.665C437.224 119.78 437.038 120.709 436.879 121.452C436.72 122.142 436.614 122.646 436.56 122.965C436.295 124.504 435.764 125.619 434.968 126.309C434.225 126.999 433.402 127.344 432.499 127.344ZM409.646 112.295C410.177 111.976 410.973 111.472 412.035 110.782C413.15 110.092 414.291 109.322 415.459 108.473C416.627 107.623 417.609 106.774 418.405 105.924C419.255 105.075 419.679 104.332 419.679 103.695C419.679 103.376 419.547 103.217 419.281 103.217C418.591 103.217 417.768 103.589 416.813 104.332C415.857 105.075 414.902 105.978 413.946 107.039C412.991 108.048 412.115 109.056 411.318 110.065C410.575 111.021 410.018 111.764 409.646 112.295ZM434.331 117.311C434.437 116.833 434.649 115.586 434.968 113.569C435.339 111.498 435.897 109.322 436.64 107.039L433.614 110.065C432.765 110.914 431.809 111.897 430.748 113.011C429.686 114.126 428.465 115.294 427.085 116.515C428.73 116.94 430.111 117.205 431.225 117.311C432.393 117.364 433.428 117.364 434.331 117.311ZM431.305 123.522C431.73 123.522 432.154 123.23 432.579 122.646C433.057 122.009 433.508 120.841 433.933 119.143C433.933 118.983 433.959 118.877 434.012 118.824C432.738 118.771 431.491 118.691 430.27 118.585C429.102 118.426 427.987 118.161 426.925 117.789C426.713 117.63 426.527 117.55 426.368 117.55C426.209 117.55 426.129 117.63 426.129 117.789C426.129 117.842 426.129 117.948 426.129 118.108C426.182 118.214 426.235 118.346 426.288 118.506C426.713 119.355 427.217 120.231 427.801 121.133C428.385 121.983 429.049 122.593 429.792 122.965C430.057 123.124 430.323 123.257 430.588 123.363C430.854 123.469 431.093 123.522 431.305 123.522ZM464.593 93.9803C463.372 93.9803 462.761 93.5291 462.761 92.6266C462.761 91.9896 463.106 91.2995 463.796 90.5563C464.486 89.8131 465.495 89.2822 466.822 88.9637C467.618 88.7514 468.255 88.6452 468.733 88.6452C469.264 88.5921 469.768 88.486 470.246 88.3267C470.034 89.3353 469.583 90.4236 468.892 91.5914C468.255 92.7593 467.406 93.476 466.344 93.7414C465.814 93.9007 465.23 93.9803 464.593 93.9803ZM451.852 125.672C451.003 125.672 450.206 125.327 449.463 124.637C448.773 123.947 448.348 123.204 448.189 122.407C448.348 121.399 448.694 120.178 449.224 118.745C449.808 117.258 450.472 115.719 451.215 114.126C451.958 112.534 452.701 111.047 453.445 109.667C454.188 108.234 454.825 107.092 455.356 106.243C454.347 107.145 453.259 108.154 452.091 109.269C450.976 110.384 449.914 111.419 448.906 112.374C448.853 112.427 448.72 112.534 448.508 112.693C448.348 112.852 448.189 112.932 448.03 112.932C447.658 112.932 447.473 112.772 447.473 112.454C447.473 112.189 447.579 111.95 447.791 111.737C449.224 110.145 450.711 108.552 452.25 106.96C453.843 105.367 455.382 103.721 456.869 102.023C457.346 101.439 457.745 100.988 458.063 100.669C458.435 100.297 458.992 100.112 459.735 100.112C460.054 100.112 460.532 100.191 461.169 100.351C461.859 100.457 462.416 100.669 462.841 100.988C463.319 101.306 463.398 101.704 463.08 102.182C462.708 102.766 462.071 103.721 461.169 105.049C460.266 106.376 459.231 107.889 458.063 109.587C456.948 111.286 455.833 113.011 454.719 114.763C453.657 116.462 452.781 118.001 452.091 119.382C451.401 120.762 451.056 121.797 451.056 122.487C451.056 122.806 451.162 122.965 451.374 122.965C451.693 122.965 452.224 122.673 452.967 122.089C453.763 121.505 454.533 120.895 455.276 120.257C456.072 119.567 456.603 119.116 456.869 118.904C458.408 117.577 459.921 116.223 461.407 114.843C462.894 113.409 464.301 111.923 465.628 110.384C465.734 110.277 465.867 110.118 466.026 109.906C466.238 109.694 466.451 109.587 466.663 109.587C466.928 109.587 467.061 109.747 467.061 110.065C467.061 110.437 466.928 110.808 466.663 111.18C465.973 112.029 465.203 112.879 464.354 113.728C463.504 114.524 462.708 115.321 461.965 116.117C460.585 117.497 459.231 118.877 457.904 120.257C456.63 121.585 455.356 122.965 454.082 124.398C453.816 124.717 453.471 125.009 453.047 125.274C452.675 125.539 452.277 125.672 451.852 125.672ZM477.411 124.717C476.934 124.717 476.376 124.504 475.739 124.08C475.155 123.708 474.624 123.257 474.147 122.726C473.669 122.142 473.43 121.611 473.43 121.133C473.43 120.496 473.642 119.674 474.067 118.665C474.492 117.656 475.023 116.595 475.66 115.48C476.297 114.312 476.907 113.25 477.491 112.295C478.128 111.339 478.606 110.596 478.924 110.065C478.5 110.596 477.836 111.419 476.934 112.534C476.031 113.595 475.023 114.79 473.908 116.117C472.846 117.391 471.731 118.638 470.563 119.859C469.449 121.027 468.413 122.009 467.458 122.806C466.502 123.549 465.733 123.92 465.149 123.92C464.777 123.92 464.14 123.575 463.238 122.885C462.388 122.142 461.964 121.027 461.964 119.541C461.964 118.32 462.335 116.833 463.078 115.082C463.875 113.33 464.91 111.525 466.184 109.667C467.458 107.756 468.838 105.978 470.325 104.332C471.864 102.686 473.377 101.359 474.863 100.351C476.403 99.3419 477.783 98.8376 479.004 98.8376C479.959 98.8376 480.888 99.1561 481.791 99.7931C482.693 100.377 483.224 101.465 483.383 103.058C484.551 101.518 485.719 100.032 486.887 98.5987C488.108 97.1123 489.807 95.1747 491.983 92.7859C492.249 92.4673 492.753 91.91 493.496 91.1137C494.239 90.2643 495.089 89.3619 496.044 88.4063C497 87.3977 497.929 86.4953 498.831 85.699C499.787 84.8496 500.583 84.3188 501.22 84.1064C501.486 84.0002 502.016 84.1595 502.813 84.5842C503.609 84.9558 504.007 85.4335 504.007 86.0175C504.007 86.336 503.874 86.628 503.609 86.8934C503.29 87.265 502.733 87.8224 501.937 88.5656C501.194 89.3088 500.344 90.1051 499.389 90.9544C498.433 91.8038 497.531 92.6001 496.681 93.3433C495.885 94.0334 495.328 94.5908 495.009 95.0154C490.55 99.74 486.728 104.252 483.543 108.552C480.358 112.852 478.234 116.648 477.173 119.939C476.907 120.735 476.774 121.293 476.774 121.611C476.774 122.089 476.907 122.328 477.173 122.328C477.385 122.328 477.65 122.222 477.969 122.009C478.287 121.744 478.659 121.452 479.084 121.133C479.933 120.443 480.888 119.594 481.95 118.585C483.065 117.577 484.153 116.542 485.215 115.48C486.277 114.418 487.206 113.463 488.002 112.613C488.851 111.711 489.435 111.074 489.754 110.702C489.86 110.596 489.966 110.49 490.072 110.384C490.231 110.224 490.391 110.145 490.55 110.145C490.922 110.145 491.107 110.331 491.107 110.702C491.107 110.914 490.683 111.552 489.833 112.613C488.984 113.622 487.922 114.816 486.648 116.196C485.374 117.524 484.074 118.851 482.746 120.178C481.419 121.452 480.251 122.54 479.243 123.443C478.287 124.292 477.677 124.717 477.411 124.717ZM465.945 121.133C466.157 121.133 466.396 121.001 466.662 120.735C469.369 118.4 471.944 115.851 474.386 113.091C476.881 110.331 479.216 107.517 481.393 104.65C481.127 104.12 480.756 103.695 480.278 103.376C479.853 103.005 479.349 102.819 478.765 102.819C477.703 102.819 476.535 103.27 475.261 104.173C474.04 105.075 472.899 106.11 471.837 107.278C470.776 108.393 469.926 109.322 469.289 110.065C468.334 111.233 467.405 112.746 466.502 114.604C465.653 116.409 465.228 118.081 465.228 119.62C465.228 120.629 465.467 121.133 465.945 121.133ZM491.877 123.283C488.692 123.283 487.099 121.717 487.099 118.585C487.099 117.364 487.418 115.958 488.055 114.365C488.745 112.719 489.647 111.074 490.762 109.428C491.877 107.782 493.124 106.27 494.505 104.889C495.885 103.456 497.292 102.315 498.725 101.465C500.211 100.563 501.592 100.112 502.866 100.112C503.29 100.112 503.582 100.218 503.741 100.43C503.954 100.589 504.113 100.881 504.219 101.306C504.325 101.518 504.405 101.757 504.458 102.023C504.511 102.288 504.591 102.554 504.697 102.819C504.909 103.191 505.095 103.562 505.254 103.934C505.414 104.305 505.493 104.704 505.493 105.128C505.493 105.659 505.361 106.137 505.095 106.561C504.83 106.933 504.511 107.278 504.14 107.597C503.609 108.074 502.812 108.685 501.751 109.428C500.689 110.118 499.521 110.835 498.247 111.578C497.026 112.268 495.832 112.879 494.664 113.409C493.549 113.94 492.647 114.259 491.957 114.365C491.479 115.108 490.974 116.037 490.444 117.152C489.966 118.214 489.727 119.196 489.727 120.098C489.727 120.576 489.833 121.001 490.045 121.372C490.311 121.744 490.709 121.93 491.24 121.93C492.089 121.93 493.204 121.532 494.584 120.735C496.018 119.886 497.504 118.877 499.043 117.709C500.583 116.488 501.99 115.321 503.264 114.206C504.591 113.038 505.573 112.135 506.21 111.498L508.758 108.791C509.077 108.473 509.422 108.313 509.793 108.313C510.112 108.313 510.271 108.446 510.271 108.711C510.271 109.03 509.82 109.694 508.917 110.702C508.015 111.658 506.927 112.746 505.653 113.967C504.432 115.135 503.29 116.223 502.229 117.232C501.167 118.187 500.477 118.798 500.158 119.063C499.043 120.019 497.769 120.974 496.336 121.93C494.903 122.832 493.416 123.283 491.877 123.283ZM493.31 112.295C493.841 111.976 494.637 111.472 495.699 110.782C496.814 110.092 497.955 109.322 499.123 108.473C500.291 107.623 501.273 106.774 502.069 105.924C502.919 105.075 503.343 104.332 503.343 103.695C503.343 103.536 503.317 103.403 503.264 103.297C503.211 103.244 503.104 103.217 502.945 103.217C502.255 103.217 501.432 103.589 500.477 104.332C499.521 105.075 498.566 105.978 497.61 107.039C496.655 108.048 495.779 109.056 494.982 110.065C494.239 111.021 493.682 111.764 493.31 112.295ZM521.321 124.876C520.525 124.876 519.622 124.637 518.614 124.159C517.658 123.735 517.181 123.044 517.181 122.089C517.181 120.974 517.605 119.647 518.455 118.108C519.304 116.568 520.313 114.976 521.48 113.33C522.648 111.631 523.763 110.012 524.825 108.473C525.94 106.933 526.736 105.632 527.214 104.571C526.895 104.73 526.364 105.049 525.621 105.526C524.931 105.951 524.241 106.402 523.551 106.88C522.861 107.305 522.356 107.65 522.038 107.915C519.755 109.614 517.765 111.366 516.066 113.171C514.42 114.976 512.748 117.046 511.049 119.382C510.625 120.019 510.173 120.682 509.696 121.372C509.271 122.062 508.82 122.726 508.342 123.363C508.13 123.628 507.758 123.894 507.227 124.159C506.749 124.425 506.298 124.557 505.873 124.557C505.183 124.557 504.838 124.186 504.838 123.443C504.838 122.806 505.157 121.824 505.794 120.496C506.484 119.169 507.333 117.656 508.342 115.958C509.35 114.259 510.412 112.587 511.527 110.941C512.642 109.242 513.65 107.729 514.553 106.402C515.455 105.022 516.092 104.04 516.464 103.456C516.358 103.615 516.066 103.907 515.588 104.332C515.11 104.704 514.632 105.102 514.155 105.526C513.73 105.898 513.412 106.163 513.199 106.323C512.191 107.278 511.208 108.26 510.253 109.269C509.297 110.277 508.342 111.286 507.386 112.295C507.28 112.401 507.068 112.56 506.749 112.772C506.484 112.985 506.245 113.091 506.033 113.091C505.767 113.091 505.635 112.958 505.635 112.693C505.635 112.427 506.006 111.87 506.749 111.021C507.493 110.171 508.422 109.163 509.536 107.995C510.651 106.827 511.792 105.632 512.96 104.412C514.181 103.191 515.243 102.102 516.145 101.147C517.048 100.191 517.658 99.5277 517.977 99.1561C518.508 98.466 519.065 97.9086 519.649 97.4839C520.286 97.0592 521.029 96.8469 521.879 96.8469C522.356 96.8469 522.94 97.0858 523.63 97.5635C524.321 97.9882 524.666 98.4925 524.666 99.0765C524.666 99.2888 524.613 99.4215 524.506 99.4746C522.914 100.802 521.348 102.368 519.808 104.173C518.322 105.978 516.915 107.836 515.588 109.747C514.261 111.658 513.04 113.436 511.925 115.082C513.199 113.648 514.632 112.242 516.225 110.861C517.818 109.428 519.357 108.101 520.843 106.88L526.497 102.262C526.869 101.943 527.24 101.598 527.612 101.226C528.037 100.855 528.435 100.536 528.806 100.271C529.231 100.005 529.682 99.8993 530.16 99.9524C530.691 99.9524 531.222 99.9524 531.752 99.9524C532.336 99.9524 532.894 100.112 533.425 100.43C534.009 100.749 534.301 101.253 534.301 101.943C534.301 102.633 534.115 103.164 533.743 103.536C533.425 103.854 533.053 104.226 532.628 104.65C531.726 105.5 530.611 106.615 529.284 107.995C528.01 109.375 526.736 110.861 525.462 112.454C524.188 114.047 523.126 115.666 522.277 117.311C521.427 118.904 521.003 120.39 521.003 121.77C521.003 121.93 521.003 122.089 521.003 122.248C521.003 122.407 521.029 122.567 521.082 122.726C522.197 122.301 523.418 121.611 524.745 120.656C526.125 119.647 527.506 118.532 528.886 117.311C530.266 116.09 531.54 114.869 532.708 113.648C533.929 112.427 534.938 111.339 535.734 110.384C535.84 110.277 535.946 110.145 536.052 109.985C536.212 109.826 536.397 109.747 536.61 109.747C536.875 109.747 537.008 109.932 537.008 110.304C537.008 110.516 536.928 110.755 536.769 111.021C535.76 112.348 534.407 113.914 532.708 115.719C531.009 117.524 529.257 119.249 527.453 120.895C525.648 122.487 524.029 123.708 522.595 124.557C522.224 124.77 521.799 124.876 521.321 124.876ZM537.758 125.115C536.006 125.115 534.6 124.531 533.538 123.363C532.529 122.195 532.025 120.709 532.025 118.904C532.025 117.205 532.556 115.347 533.618 113.33C534.732 111.313 536.139 109.348 537.838 107.437C539.59 105.526 541.395 103.854 543.252 102.421C545.11 100.988 546.783 100.005 548.269 99.4746C548.959 99.2092 549.596 99.0765 550.18 99.0765C550.87 99.0765 551.321 99.2357 551.534 99.5542C551.746 99.8727 551.905 100.218 552.012 100.589C552.171 100.961 552.41 101.253 552.728 101.465C553.312 101.784 553.604 102.341 553.604 103.137C553.604 103.721 553.445 104.438 553.126 105.287C552.861 106.084 552.463 106.8 551.932 107.437C551.401 108.021 550.764 108.313 550.021 108.313C549.331 108.313 548.986 108.021 548.986 107.437C548.986 107.066 549.171 106.668 549.543 106.243C549.915 105.818 550.286 105.367 550.658 104.889C551.029 104.358 551.215 103.854 551.215 103.376C551.215 102.899 550.976 102.66 550.499 102.66C549.596 102.66 548.481 103.137 547.154 104.093C545.827 104.995 544.473 106.19 543.093 107.676C541.713 109.163 540.412 110.755 539.191 112.454C537.971 114.1 536.988 115.666 536.245 117.152C535.502 118.638 535.13 119.859 535.13 120.815C535.13 121.505 535.29 122.089 535.608 122.567C535.98 122.991 536.511 123.204 537.201 123.204C538.316 123.204 539.563 122.885 540.943 122.248C542.323 121.611 543.624 120.841 544.845 119.939C546.119 119.037 547.154 118.24 547.951 117.55C549.437 116.223 550.87 114.896 552.25 113.569C553.684 112.189 555.091 110.808 556.471 109.428C556.63 109.269 556.816 109.189 557.028 109.189C557.506 109.189 557.745 109.402 557.745 109.826C557.745 110.039 557.32 110.623 556.471 111.578C555.621 112.48 554.613 113.516 553.445 114.684C552.277 115.851 551.189 116.913 550.18 117.869C549.171 118.824 548.508 119.435 548.189 119.7C547.34 120.443 546.305 121.24 545.084 122.089C543.916 122.938 542.695 123.655 541.421 124.239C540.147 124.823 538.926 125.115 537.758 125.115ZM541.741 154.497C539.3 154.497 538.079 153.277 538.079 150.835C538.079 150.569 538.105 150.304 538.158 150.038C538.158 149.773 538.185 149.507 538.238 149.242C538.662 147.331 539.565 145.5 540.945 143.748C542.325 141.996 543.944 140.35 545.802 138.811C547.66 137.324 549.545 135.918 551.456 134.591C553.42 133.316 555.172 132.202 556.711 131.246C557.614 130.662 558.755 129.946 560.135 129.096C561.569 128.247 563.082 127.318 564.674 126.309C566.267 125.354 567.78 124.451 569.213 123.602C569.797 122.115 570.195 120.47 570.407 118.665C570.673 116.807 570.806 115.082 570.806 113.489V112.852C570.169 113.808 569.24 114.922 568.019 116.196C566.798 117.471 565.417 118.718 563.878 119.939C562.339 121.107 560.826 122.089 559.339 122.885C557.853 123.681 556.499 124.08 555.278 124.08C554.429 124.08 553.845 123.814 553.526 123.283C553.261 122.752 553.128 122.142 553.128 121.452C553.128 119.594 553.526 117.683 554.323 115.719C555.119 113.755 556.021 111.95 557.03 110.304C558.039 108.605 558.941 107.199 559.737 106.084C560.534 104.916 560.932 104.252 560.932 104.093C560.932 104.04 560.879 104.013 560.773 104.013C560.56 104.013 560.321 104.013 560.056 104.013C559.844 104.013 559.817 103.854 559.976 103.536C560.719 102.633 561.648 101.837 562.763 101.147C563.878 100.457 564.94 100.112 565.948 100.112C566.32 100.112 566.745 100.271 567.222 100.589C567.753 100.855 568.019 101.2 568.019 101.625C568.019 101.89 567.859 102.182 567.541 102.5C567.169 102.872 566.718 103.297 566.187 103.775C565.709 104.252 565.046 104.995 564.197 106.004C563.719 106.535 563.055 107.411 562.206 108.632C561.356 109.8 560.481 111.153 559.578 112.693C558.676 114.179 557.906 115.666 557.269 117.152C556.685 118.585 556.393 119.833 556.393 120.895C556.393 121.054 556.393 121.24 556.393 121.452C556.446 121.611 556.579 121.77 556.791 121.93C557.534 121.983 558.463 121.664 559.578 120.974C560.693 120.231 561.861 119.302 563.082 118.187C564.356 117.019 565.55 115.798 566.665 114.524C567.833 113.197 568.841 111.976 569.691 110.861C570.593 109.694 571.23 108.765 571.602 108.074C572.186 107.013 573.062 106.482 574.23 106.482C575.079 106.482 575.557 106.668 575.663 107.039C575.822 107.411 575.902 107.915 575.902 108.552C575.902 110.623 575.769 112.454 575.504 114.047C575.291 115.586 574.867 117.338 574.23 119.302C577.627 116.382 580.865 113.303 583.944 110.065C583.997 109.959 584.103 109.826 584.263 109.667C584.475 109.508 584.634 109.428 584.741 109.428C585.059 109.428 585.218 109.587 585.218 109.906C585.218 110.331 585.059 110.755 584.741 111.18C584.263 111.764 583.732 112.348 583.148 112.932C582.617 113.516 582.086 114.1 581.555 114.684C580.281 116.064 578.981 117.444 577.654 118.824C576.326 120.151 574.92 121.425 573.433 122.646C570.991 129.07 567.78 134.697 563.798 139.527C559.87 144.411 554.907 148.578 548.908 152.029C547.899 152.613 546.758 153.17 545.484 153.701C544.21 154.232 542.962 154.497 541.741 154.497ZM543.573 152.507C545.006 152.507 546.572 151.976 548.271 150.914C549.917 149.906 551.562 148.632 553.208 147.092C554.853 145.553 556.34 144.013 557.667 142.474C559.047 140.987 560.135 139.74 560.932 138.731C561.834 137.51 562.71 136.289 563.559 135.068C564.409 133.9 565.205 132.679 565.948 131.405C567.063 129.547 567.992 127.743 568.735 125.991C568.788 125.831 568.735 125.725 568.576 125.672C568.47 125.672 568.417 125.672 568.417 125.672C566.771 126.84 565.099 127.981 563.4 129.096C561.755 130.264 560.082 131.405 558.384 132.52C557.534 133.051 556.393 133.821 554.96 134.829C553.526 135.891 551.987 137.059 550.341 138.333C548.696 139.66 547.13 141.014 545.643 142.394C544.157 143.827 542.936 145.208 541.98 146.535C541.025 147.915 540.547 149.136 540.547 150.198C540.547 151.047 540.892 151.631 541.582 151.949C542.219 152.321 542.883 152.507 543.573 152.507Z" fill="white"/>
<mask id="path-2-outside-1_868_384" maskUnits="userSpaceOnUse" x="6" y="8" width="490" height="85" fill="black">
<rect fill="white" x="6" y="8" width="490" height="85"/>
<path d="M7.96154 92V9.84615H33.6923L52.8462 66.2692L71.5385 9.84615H96.6923V92H79.7308V33.6154L59.5385 92H45.5769L25.1538 34.1923V92H7.96154ZM153.488 9.73076L184.757 92H165.834L159.372 73.6538H128.795L122.103 92H103.642L134.911 9.73076H153.488ZM154.988 60.5L144.142 29.9231L133.18 60.5H154.988ZM191.63 92V9.84615H209.977L243.784 64.8846V9.84615H261.092V92H243.092L209.053 36.8462V92H191.63ZM277.155 92V9.84615H295.501L329.309 64.8846V9.84615H346.616V92H328.616L294.578 36.8462V92H277.155ZM403.525 9.73076L434.794 92H415.871L409.41 73.6538H378.833L372.141 92H353.679L384.948 9.73076H403.525ZM405.025 60.5L394.179 29.9231L383.218 60.5H405.025ZM494.143 9.84615V25.1923H469.45V92H451.335V25.1923H426.643V9.84615H494.143Z"/>
</mask>
<path d="M7.96154 92H6.96154V93H7.96154V92ZM7.96154 9.84615V8.84615H6.96154V9.84615H7.96154ZM33.6923 9.84615L34.6392 9.5247L34.4089 8.84615H33.6923V9.84615ZM52.8462 66.2692L51.8992 66.5907L52.8577 69.4142L53.7954 66.5837L52.8462 66.2692ZM71.5385 9.84615V8.84615H70.8163L70.5892 9.53167L71.5385 9.84615ZM96.6923 9.84615H97.6923V8.84615H96.6923V9.84615ZM96.6923 92V93H97.6923V92H96.6923ZM79.7308 92H78.7308V93H79.7308V92ZM79.7308 33.6154H80.7308L78.7857 33.2885L79.7308 33.6154ZM59.5385 92V93H60.2507L60.4835 92.3269L59.5385 92ZM45.5769 92L44.634 92.3331L44.8696 93H45.5769V92ZM25.1538 34.1923L26.0967 33.8592L24.1538 34.1923H25.1538ZM25.1538 92V93H26.1538V92H25.1538ZM7.96154 92H8.96154V9.84615H7.96154H6.96154V92H7.96154ZM7.96154 9.84615V10.8462H33.6923V9.84615V8.84615H7.96154V9.84615ZM33.6923 9.84615L32.7454 10.1676L51.8992 66.5907L52.8462 66.2692L53.7931 65.9478L34.6392 9.5247L33.6923 9.84615ZM52.8462 66.2692L53.7954 66.5837L72.4877 10.1606L71.5385 9.84615L70.5892 9.53167L51.8969 65.9548L52.8462 66.2692ZM71.5385 9.84615V10.8462H96.6923V9.84615V8.84615H71.5385V9.84615ZM96.6923 9.84615H95.6923V92H96.6923H97.6923V9.84615H96.6923ZM96.6923 92V91H79.7308V92V93H96.6923V92ZM79.7308 92H80.7308V33.6154H79.7308H78.7308V92H79.7308ZM79.7308 33.6154L78.7857 33.2885L58.5934 91.6731L59.5385 92L60.4835 92.3269L80.6758 33.9422L79.7308 33.6154ZM59.5385 92V91H45.5769V92V93H59.5385V92ZM45.5769 92L46.5198 91.6669L26.0967 33.8592L25.1538 34.1923L24.211 34.5254L44.634 92.3331L45.5769 92ZM25.1538 34.1923H24.1538V92H25.1538H26.1538V34.1923H25.1538ZM25.1538 92V91H7.96154V92V93H25.1538V92ZM153.488 9.73076L154.422 9.37548L154.177 8.73076H153.488V9.73076ZM184.757 92V93H186.207L185.692 91.6447L184.757 92ZM165.834 92L164.891 92.3322L165.126 93H165.834V92ZM159.372 73.6538L160.316 73.3216L160.08 72.6538H159.372V73.6538ZM128.795 73.6538V72.6538H128.096L127.856 73.3112L128.795 73.6538ZM122.103 92V93H122.803L123.043 92.3427L122.103 92ZM103.642 92L102.707 91.6447L102.192 93H103.642V92ZM134.911 9.73076V8.73076H134.221L133.976 9.37548L134.911 9.73076ZM154.988 60.5V61.5H156.403L155.93 60.1657L154.988 60.5ZM144.142 29.9231L145.084 29.5888L144.146 26.9459L143.2 29.5856L144.142 29.9231ZM133.18 60.5L132.239 60.1625L131.759 61.5H133.18V60.5ZM153.488 9.73076L152.553 10.0861L183.822 92.3553L184.757 92L185.692 91.6447L154.422 9.37548L153.488 9.73076ZM184.757 92V91H165.834V92V93H184.757V92ZM165.834 92L166.777 91.6678L160.316 73.3216L159.372 73.6538L158.429 73.986L164.891 92.3322L165.834 92ZM159.372 73.6538V72.6538H128.795V73.6538V74.6538H159.372V73.6538ZM128.795 73.6538L127.856 73.3112L121.164 91.6573L122.103 92L123.043 92.3427L129.735 73.9965L128.795 73.6538ZM122.103 92V91H103.642V92V93H122.103V92ZM103.642 92L104.576 92.3553L135.846 10.0861L134.911 9.73076L133.976 9.37548L102.707 91.6447L103.642 92ZM134.911 9.73076V10.7308H153.488V9.73076V8.73076H134.911V9.73076ZM154.988 60.5L155.93 60.1657L145.084 29.5888L144.142 29.9231L143.199 30.2574L154.045 60.8343L154.988 60.5ZM144.142 29.9231L143.2 29.5856L132.239 60.1625L133.18 60.5L134.121 60.8375L145.083 30.2605L144.142 29.9231ZM133.18 60.5V61.5H154.988V60.5V59.5H133.18V60.5ZM191.63 92H190.63V93H191.63V92ZM191.63 9.84615V8.84615H190.63V9.84615H191.63ZM209.977 9.84615L210.829 9.32275L210.536 8.84615H209.977V9.84615ZM243.784 64.8846L242.932 65.408L244.784 68.4232V64.8846H243.784ZM243.784 9.84615V8.84615H242.784V9.84615H243.784ZM261.092 9.84615H262.092V8.84615H261.092V9.84615ZM261.092 92V93H262.092V92H261.092ZM243.092 92L242.241 92.5252L242.534 93H243.092V92ZM209.053 36.8462L209.904 36.321L208.053 33.3217V36.8462H209.053ZM209.053 92V93H210.053V92H209.053ZM191.63 92H192.63V9.84615H191.63H190.63V92H191.63ZM191.63 9.84615V10.8462H209.977V9.84615V8.84615H191.63V9.84615ZM209.977 9.84615L209.124 10.3696L242.932 65.408L243.784 64.8846L244.636 64.3612L210.829 9.32275L209.977 9.84615ZM243.784 64.8846H244.784V9.84615H243.784H242.784V64.8846H243.784ZM243.784 9.84615V10.8462H261.092V9.84615V8.84615H243.784V9.84615ZM261.092 9.84615H260.092V92H261.092H262.092V9.84615H261.092ZM261.092 92V91H243.092V92V93H261.092V92ZM243.092 92L243.943 91.4748L209.904 36.321L209.053 36.8462L208.202 37.3713L242.241 92.5252L243.092 92ZM209.053 36.8462H208.053V92H209.053H210.053V36.8462H209.053ZM209.053 92V91H191.63V92V93H209.053V92ZM277.155 92H276.155V93H277.155V92ZM277.155 9.84615V8.84615H276.155V9.84615H277.155ZM295.501 9.84615L296.353 9.32275L296.06 8.84615H295.501V9.84615ZM329.309 64.8846L328.457 65.408L330.309 68.4232V64.8846H329.309ZM329.309 9.84615V8.84615H328.309V9.84615H329.309ZM346.616 9.84615H347.616V8.84615H346.616V9.84615ZM346.616 92V93H347.616V92H346.616ZM328.616 92L327.765 92.5252L328.058 93H328.616V92ZM294.578 36.8462L295.429 36.321L293.578 33.3217V36.8462H294.578ZM294.578 92V93H295.578V92H294.578ZM277.155 92H278.155V9.84615H277.155H276.155V92H277.155ZM277.155 9.84615V10.8462H295.501V9.84615V8.84615H277.155V9.84615ZM295.501 9.84615L294.649 10.3696L328.457 65.408L329.309 64.8846L330.161 64.3612L296.353 9.32275L295.501 9.84615ZM329.309 64.8846H330.309V9.84615H329.309H328.309V64.8846H329.309ZM329.309 9.84615V10.8462H346.616V9.84615V8.84615H329.309V9.84615ZM346.616 9.84615H345.616V92H346.616H347.616V9.84615H346.616ZM346.616 92V91H328.616V92V93H346.616V92ZM328.616 92L329.467 91.4748L295.429 36.321L294.578 36.8462L293.727 37.3713L327.765 92.5252L328.616 92ZM294.578 36.8462H293.578V92H294.578H295.578V36.8462H294.578ZM294.578 92V91H277.155V92V93H294.578V92ZM403.525 9.73076L404.46 9.37548L404.215 8.73076H403.525V9.73076ZM434.794 92V93H436.244L435.729 91.6447L434.794 92ZM415.871 92L414.928 92.3322L415.163 93H415.871V92ZM409.41 73.6538L410.353 73.3216L410.118 72.6538H409.41V73.6538ZM378.833 73.6538V72.6538H378.133L377.893 73.3112L378.833 73.6538ZM372.141 92V93H372.84L373.08 92.3427L372.141 92ZM353.679 92L352.744 91.6447L352.229 93H353.679V92ZM384.948 9.73076V8.73076H384.259L384.014 9.37548L384.948 9.73076ZM405.025 60.5V61.5H406.441L405.968 60.1657L405.025 60.5ZM394.179 29.9231L395.122 29.5888L394.184 26.9459L393.238 29.5856L394.179 29.9231ZM383.218 60.5L382.276 60.1625L381.797 61.5H383.218V60.5ZM403.525 9.73076L402.59 10.0861L433.86 92.3553L434.794 92L435.729 91.6447L404.46 9.37548L403.525 9.73076ZM434.794 92V91H415.871V92V93H434.794V92ZM415.871 92L416.815 91.6678L410.353 73.3216L409.41 73.6538L408.467 73.986L414.928 92.3322L415.871 92ZM409.41 73.6538V72.6538H378.833V73.6538V74.6538H409.41V73.6538ZM378.833 73.6538L377.893 73.3112L371.201 91.6573L372.141 92L373.08 92.3427L379.772 73.9965L378.833 73.6538ZM372.141 92V91H353.679V92V93H372.141V92ZM353.679 92L354.614 92.3553L385.883 10.0861L384.948 9.73076L384.014 9.37548L352.744 91.6447L353.679 92ZM384.948 9.73076V10.7308H403.525V9.73076V8.73076H384.948V9.73076ZM405.025 60.5L405.968 60.1657L395.122 29.5888L394.179 29.9231L393.237 30.2574L404.083 60.8343L405.025 60.5ZM394.179 29.9231L393.238 29.5856L382.276 60.1625L383.218 60.5L384.159 60.8375L395.12 30.2605L394.179 29.9231ZM383.218 60.5V61.5H405.025V60.5V59.5H383.218V60.5ZM494.143 9.84615H495.143V8.84615H494.143V9.84615ZM494.143 25.1923V26.1923H495.143V25.1923H494.143ZM469.45 25.1923V24.1923H468.45V25.1923H469.45ZM469.45 92V93H470.45V92H469.45ZM451.335 92H450.335V93H451.335V92ZM451.335 25.1923H452.335V24.1923H451.335V25.1923ZM426.643 25.1923H425.643V26.1923H426.643V25.1923ZM426.643 9.84615V8.84615H425.643V9.84615H426.643ZM494.143 9.84615H493.143V25.1923H494.143H495.143V9.84615H494.143ZM494.143 25.1923V24.1923H469.45V25.1923V26.1923H494.143V25.1923ZM469.45 25.1923H468.45V92H469.45H470.45V25.1923H469.45ZM469.45 92V91H451.335V92V93H469.45V92ZM451.335 92H452.335V25.1923H451.335H450.335V92H451.335ZM451.335 25.1923V24.1923H426.643V25.1923V26.1923H451.335V25.1923ZM426.643 25.1923H427.643V9.84615H426.643H425.643V25.1923H426.643ZM426.643 9.84615V10.8462H494.143V9.84615V8.84615H426.643V9.84615Z" fill="white" mask="url(#path-2-outside-1_868_384)"/>
</svg>
