<svg width="590" height="154" viewBox="0 0 590 154" fill="none" xmlns="http://www.w3.org/2000/svg">
<path d="M487.474 124.752C484.926 124.752 482.563 124.327 480.387 123.478C478.21 122.681 476.432 121.407 475.052 119.656C473.672 117.904 472.849 115.648 472.583 112.887C472.371 110.498 472.743 107.924 473.698 105.163C474.707 102.35 476.14 99.5363 477.998 96.7228C479.909 93.9093 482.086 91.2285 484.527 88.6804C486.969 86.1323 489.544 83.8496 492.251 81.8324C495.012 79.8151 497.746 78.2226 500.453 77.0547C503.16 75.8868 505.708 75.3029 508.097 75.3029C510.008 75.3029 511.707 75.9134 513.193 77.1343C514.68 78.3553 515.423 80.0009 515.423 82.0713C515.423 83.7169 514.892 85.0971 513.831 86.2119C512.769 87.2736 511.415 87.8045 509.769 87.8045C509.716 87.8045 509.451 87.7779 508.973 87.7248C508.495 87.6717 508.23 87.486 508.177 87.1674C508.442 86.5304 508.92 85.973 509.61 85.4953C510.353 85.0175 511.017 84.3805 511.601 83.5842C512.185 82.7348 512.397 81.4873 512.238 79.8417C512.185 78.8861 511.787 78.2226 511.044 77.851C510.353 77.4263 509.557 77.2139 508.655 77.2139C506.425 77.2139 504.063 77.851 501.568 79.125C499.073 80.346 496.604 82.0447 494.162 84.2212C491.774 86.3446 489.491 88.7335 487.314 91.3877C485.191 94.042 483.306 96.8024 481.661 99.669C480.068 102.536 478.847 105.349 477.998 108.11C477.149 110.817 476.83 113.259 477.042 115.435C477.308 117.824 478.37 119.603 480.228 120.77C482.139 121.938 484.182 122.522 486.359 122.522C488.854 122.522 491.455 122.124 494.162 121.328C496.87 120.478 499.524 119.417 502.125 118.143C504.779 116.869 507.248 115.542 509.531 114.161C511.813 112.781 513.777 111.507 515.423 110.339C517.122 109.171 518.343 108.295 519.086 107.711C519.139 107.658 519.192 107.632 519.245 107.632C519.351 107.632 519.404 107.765 519.404 108.03C519.404 108.242 519.351 108.481 519.245 108.747C519.192 109.012 519.033 109.277 518.767 109.543C517.069 111.295 514.972 113.073 512.477 114.878C510.035 116.63 507.381 118.249 504.514 119.735C501.647 121.222 498.728 122.416 495.755 123.319C492.835 124.274 490.075 124.752 487.474 124.752ZM534.59 92.9803C533.369 92.9803 532.759 92.5291 532.759 91.6266C532.759 90.9896 533.104 90.2995 533.794 89.5563C534.484 88.8131 535.493 88.2822 536.82 87.9637C537.616 87.7514 538.253 87.6452 538.731 87.6452C539.262 87.5921 539.766 87.486 540.244 87.3267C540.032 88.3353 539.58 89.4236 538.89 90.5914C538.253 91.7593 537.404 92.476 536.342 92.7414C535.811 92.9007 535.227 92.9803 534.59 92.9803ZM521.85 124.672C521.001 124.672 520.204 124.327 519.461 123.637C518.771 122.947 518.346 122.204 518.187 121.407C518.346 120.399 518.691 119.178 519.222 117.745C519.806 116.258 520.47 114.719 521.213 113.126C521.956 111.534 522.699 110.047 523.442 108.667C524.186 107.234 524.823 106.092 525.354 105.243C524.345 106.145 523.257 107.154 522.089 108.269C520.974 109.384 519.912 110.419 518.904 111.374C518.851 111.427 518.718 111.534 518.506 111.693C518.346 111.852 518.187 111.932 518.028 111.932C517.656 111.932 517.47 111.772 517.47 111.454C517.47 111.189 517.577 110.95 517.789 110.737C519.222 109.145 520.709 107.552 522.248 105.96C523.841 104.367 525.38 102.721 526.866 101.023C527.344 100.439 527.742 99.9875 528.061 99.669C528.432 99.2974 528.99 99.1116 529.733 99.1116C530.052 99.1116 530.529 99.1913 531.166 99.3505C531.856 99.4567 532.414 99.669 532.839 99.9875C533.316 100.306 533.396 100.704 533.077 101.182C532.706 101.766 532.069 102.721 531.166 104.049C530.264 105.376 529.229 106.889 528.061 108.587C526.946 110.286 525.831 112.011 524.717 113.763C523.655 115.462 522.779 117.001 522.089 118.382C521.399 119.762 521.054 120.797 521.054 121.487C521.054 121.806 521.16 121.965 521.372 121.965C521.691 121.965 522.222 121.673 522.965 121.089C523.761 120.505 524.531 119.895 525.274 119.257C526.07 118.567 526.601 118.116 526.866 117.904C528.406 116.577 529.919 115.223 531.405 113.843C532.892 112.409 534.298 110.923 535.626 109.384C535.732 109.277 535.864 109.118 536.024 108.906C536.236 108.694 536.448 108.587 536.661 108.587C536.926 108.587 537.059 108.747 537.059 109.065C537.059 109.437 536.926 109.808 536.661 110.18C535.971 111.029 535.201 111.879 534.351 112.728C533.502 113.524 532.706 114.321 531.963 115.117C530.582 116.497 529.229 117.877 527.902 119.257C526.628 120.585 525.354 121.965 524.079 123.398C523.814 123.717 523.469 124.009 523.044 124.274C522.673 124.539 522.275 124.672 521.85 124.672ZM539.446 125.07C538.491 125.07 537.668 124.752 536.978 124.115C536.341 123.478 535.837 122.708 535.465 121.806C535.147 120.85 534.987 119.948 534.987 119.098C534.987 118.249 535.093 117.426 535.306 116.63C535.518 115.78 535.81 114.958 536.182 114.161C536.872 112.622 537.695 110.923 538.65 109.065C539.659 107.154 540.72 105.216 541.835 103.252C543.003 101.235 544.171 99.4036 545.339 97.758C544.436 98.1296 543.375 98.5542 542.154 99.032C540.986 99.4567 540.216 99.669 539.845 99.669C539.632 99.6159 539.473 99.4567 539.367 99.1913C539.314 98.9258 539.287 98.6604 539.287 98.395C539.287 97.2802 539.818 96.537 540.88 96.1654C542.525 95.6345 544.728 95.1568 547.489 94.7321C549.506 92.0778 551.683 89.4236 554.018 86.7693C556.407 84.115 558.823 82.0182 561.264 80.4787C561.742 80.1602 562.273 80.3194 562.857 80.9565C563.441 81.5404 563.759 82.1509 563.813 82.7879C563.813 83.3718 563.6 83.77 563.176 83.9823C561.052 85.3095 559.088 86.8224 557.283 88.5211C555.478 90.1668 553.62 92.0513 551.709 94.1747C552.771 94.0154 553.7 93.9093 554.496 93.8562C555.292 93.8031 555.797 93.7766 556.009 93.7766C556.168 93.7766 556.434 93.7766 556.805 93.7766C557.177 93.7235 557.575 93.6969 558 93.6969C558.637 93.6969 559.221 93.75 559.752 93.8562C560.335 93.9624 560.627 94.1482 560.627 94.4136C560.627 94.6259 560.389 94.8117 559.911 94.971C559.486 95.0771 559.008 95.1568 558.478 95.2099C557.947 95.2099 557.549 95.2364 557.283 95.2895C555.691 95.5018 554.257 95.7142 552.983 95.9265C551.762 96.1389 550.621 96.4043 549.559 96.7228C548.338 98.2092 547.383 99.4567 546.693 100.465C546.056 101.474 545.498 102.403 545.02 103.252C544.596 104.049 544.065 104.951 543.428 105.96C542.048 108.614 540.853 111.321 539.845 114.082C538.889 116.842 538.411 119.072 538.411 120.77C538.411 121.036 538.438 121.248 538.491 121.407C538.544 121.567 538.703 121.646 538.969 121.646C539.287 121.646 539.579 121.567 539.845 121.407C540.163 121.195 540.429 120.983 540.641 120.77C541.384 120.186 542.074 119.523 542.711 118.78C543.401 117.983 544.065 117.24 544.702 116.55C545.87 115.276 547.064 114.029 548.285 112.808C549.506 111.587 550.701 110.366 551.868 109.145C551.975 109.039 552.081 108.959 552.187 108.906C552.293 108.8 552.399 108.747 552.505 108.747C552.877 108.747 553.063 108.959 553.063 109.384C553.063 109.543 552.957 109.782 552.744 110.1C552.107 110.95 551.417 111.799 550.674 112.648C549.931 113.445 549.214 114.267 548.524 115.117C547.144 116.762 545.764 118.382 544.383 119.974C543.056 121.567 541.729 123.212 540.402 124.911C540.243 124.964 540.083 124.991 539.924 124.991C539.765 125.044 539.606 125.07 539.446 125.07ZM537.788 153.497C535.346 153.497 534.125 152.277 534.125 149.835C534.125 149.569 534.152 149.304 534.205 149.038C534.205 148.773 534.231 148.507 534.284 148.242C534.709 146.331 535.611 144.5 536.992 142.748C538.372 140.996 539.991 139.35 541.849 137.811C543.707 136.324 545.591 134.918 547.503 133.591C549.467 132.316 551.219 131.202 552.758 130.246C553.66 129.662 554.802 128.946 556.182 128.096C557.615 127.247 559.128 126.318 560.721 125.309C562.313 124.354 563.826 123.451 565.26 122.602C565.844 121.115 566.242 119.47 566.454 117.665C566.719 115.807 566.852 114.082 566.852 112.489V111.852C566.215 112.808 565.286 113.922 564.065 115.196C562.844 116.471 561.464 117.718 559.924 118.939C558.385 120.107 556.872 121.089 555.386 121.885C553.899 122.681 552.546 123.08 551.325 123.08C550.475 123.08 549.891 122.814 549.573 122.283C549.307 121.752 549.175 121.142 549.175 120.452C549.175 118.594 549.573 116.683 550.369 114.719C551.165 112.755 552.068 110.95 553.076 109.304C554.085 107.605 554.988 106.199 555.784 105.084C556.58 103.916 556.978 103.252 556.978 103.093C556.978 103.04 556.925 103.013 556.819 103.013C556.607 103.013 556.368 103.013 556.102 103.013C555.89 103.013 555.863 102.854 556.023 102.536C556.766 101.633 557.695 100.837 558.81 100.147C559.924 99.4567 560.986 99.1116 561.995 99.1116C562.366 99.1116 562.791 99.2709 563.269 99.5894C563.8 99.8548 564.065 100.2 564.065 100.625C564.065 100.89 563.906 101.182 563.587 101.5C563.216 101.872 562.765 102.297 562.234 102.775C561.756 103.252 561.092 103.995 560.243 105.004C559.765 105.535 559.102 106.411 558.252 107.632C557.403 108.8 556.527 110.153 555.625 111.693C554.722 113.179 553.952 114.666 553.315 116.152C552.731 117.585 552.439 118.833 552.439 119.895C552.439 120.054 552.439 120.24 552.439 120.452C552.493 120.611 552.625 120.77 552.838 120.93C553.581 120.983 554.51 120.664 555.625 119.974C556.739 119.231 557.907 118.302 559.128 117.187C560.402 116.019 561.597 114.798 562.711 113.524C563.879 112.197 564.888 110.976 565.737 109.861C566.64 108.694 567.277 107.765 567.648 107.074C568.232 106.013 569.108 105.482 570.276 105.482C571.125 105.482 571.603 105.668 571.709 106.039C571.869 106.411 571.948 106.915 571.948 107.552C571.948 109.623 571.816 111.454 571.55 113.047C571.338 114.586 570.913 116.338 570.276 118.302C573.674 115.382 576.912 112.303 579.991 109.065C580.044 108.959 580.15 108.826 580.309 108.667C580.522 108.508 580.681 108.428 580.787 108.428C581.106 108.428 581.265 108.587 581.265 108.906C581.265 109.331 581.106 109.755 580.787 110.18C580.309 110.764 579.778 111.348 579.194 111.932C578.664 112.516 578.133 113.1 577.602 113.684C576.328 115.064 575.027 116.444 573.7 117.824C572.373 119.151 570.966 120.425 569.48 121.646C567.038 128.07 563.826 133.697 559.845 138.527C555.917 143.411 550.953 147.578 544.954 151.029C543.946 151.613 542.804 152.17 541.53 152.701C540.256 153.232 539.009 153.497 537.788 153.497ZM539.619 151.507C541.053 151.507 542.619 150.976 544.317 149.914C545.963 148.906 547.609 147.632 549.254 146.092C550.9 144.553 552.386 143.013 553.714 141.474C555.094 139.987 556.182 138.74 556.978 137.731C557.881 136.51 558.757 135.289 559.606 134.068C560.455 132.9 561.252 131.679 561.995 130.405C563.11 128.547 564.039 126.743 564.782 124.991C564.835 124.831 564.782 124.725 564.623 124.672C564.516 124.672 564.463 124.672 564.463 124.672C562.818 125.84 561.145 126.981 559.447 128.096C557.801 129.264 556.129 130.405 554.43 131.52C553.581 132.051 552.439 132.821 551.006 133.829C549.573 134.891 548.033 136.059 546.388 137.333C544.742 138.66 543.176 140.014 541.69 141.394C540.203 142.827 538.982 144.208 538.027 145.535C537.071 146.915 536.594 148.136 536.594 149.198C536.594 150.047 536.939 150.631 537.629 150.949C538.266 151.321 538.929 151.507 539.619 151.507Z" fill="white"/>
<mask id="path-2-outside-1_873_394" maskUnits="userSpaceOnUse" x="3" y="6" width="494" height="89" fill="black">
<rect fill="white" x="3" y="6" width="494" height="89"/>
<path d="M45.1154 7.88461C57.1154 7.88461 66.8077 11.9231 74.1923 19.8846C81.5769 27.8461 85.3846 38.2308 85.3846 51.0385C85.3846 63.9615 81.5769 74.3462 74.1923 82.1923C66.8077 90.0385 57 93.9615 45 93.9615C32.7692 93.9615 22.9615 90.0385 15.5769 82.1923C8.07692 74.3462 4.38462 63.9615 4.38462 51.0385C4.38462 38.1154 8.07692 27.6154 15.4615 19.7692C22.8462 11.9231 32.7692 7.88461 45.1154 7.88461ZM44.8846 22.6538C38.0769 22.6538 32.6538 25.3077 28.6154 30.3846C24.5769 35.4615 22.5 42.2692 22.5 50.8077C22.5 59.5769 24.5769 66.5 28.5 71.5769C32.5385 76.5385 38.0769 79.0769 45.1154 79.1923C51.9231 79.1923 57.3462 76.6538 61.2692 71.5769C65.1923 66.5 67.1538 59.5769 67.1538 50.8077C67.1538 42.1538 65.0769 35.3462 61.1538 30.2692C57.1154 25.1923 51.6923 22.6538 44.8846 22.6538ZM98.46 9.84615L139.306 9.96154C147.383 9.96154 154.075 11.8077 159.268 15.7308C164.345 19.5385 166.999 25.4231 166.999 33.2692C166.999 38 165.845 42.1538 163.537 45.7308C161.229 49.3077 157.998 51.8462 153.96 53.4615C160.999 54.8462 165.037 61.3077 166.075 72.6154C166.075 72.9615 166.075 74.1154 166.306 76.1923C166.422 78.1538 166.537 79.7692 166.768 80.9231C166.883 82.0769 167.114 83.5769 167.345 85.3077C167.575 86.9231 167.922 88.4231 168.383 89.5769C168.845 90.7308 169.306 91.5385 169.999 92.1154H151.306C150.614 90.8462 150.152 89.2308 149.922 87.3846C149.575 85.5385 149.345 83.1154 149.114 80.1154C148.883 77.1154 148.768 75.5 148.768 75.1538C148.075 69.3846 146.691 65.4615 144.383 63.1538C142.075 60.9615 138.152 59.8077 132.383 59.8077H116.345V92H98.46V9.84615ZM116.345 24.1538V46.8846H133.422C138.383 46.8846 142.306 46.0769 145.075 44.4615C147.845 42.8462 149.345 39.8462 149.345 35.2308C149.345 30.8462 147.96 27.9615 145.191 26.4615C142.422 24.8462 138.845 24.1538 134.229 24.1538H116.345ZM221.885 9.73076L253.154 92H234.231L227.769 73.6538H197.192L190.5 92H172.038L203.308 9.73076H221.885ZM223.385 60.5L212.538 29.9231L201.577 60.5H223.385ZM260.027 92V9.84615H278.373L312.181 64.8846V9.84615H329.489V92H311.489L277.45 36.8462V92H260.027ZM418.706 47.5769L418.59 92H407.167L405.436 82.6538C399.321 90.2692 391.129 93.9615 380.744 93.9615C369.321 93.9615 359.975 90.0385 352.821 82.0769C345.667 74.2308 342.09 63.9615 342.09 51.2692C342.09 38.5769 345.898 28.3077 353.398 20.2308C361.013 12.1538 370.706 8.11538 382.475 8.11538C391.936 8.11538 399.782 10.7692 406.244 16.0769C412.706 21.3846 416.513 28.3077 417.552 36.8462H400.129C399.321 32.5769 397.359 29.2308 394.129 26.8077C391.013 24.5 387.09 23.2308 382.359 23.2308C375.436 23.2308 370.129 25.7692 366.206 30.7308C362.282 35.6923 360.321 42.5 360.321 51.2692C360.321 60.2692 362.282 67.1923 366.206 72.1538C370.129 77.1154 375.782 79.5385 382.936 79.5385C388.475 79.5385 393.09 77.9231 396.782 74.4615C400.359 71 402.321 66.5 402.552 60.9615H384.206V47.5769H418.706ZM494.72 9.84615V24.6154H450.989V42.5H491.143V56.6923H450.989V76.8846H495.527V92H433.104V9.84615H494.72Z"/>
</mask>
<path d="M74.1923 19.8846L73.4591 20.5647V20.5647L74.1923 19.8846ZM74.1923 82.1923L73.4641 81.5069L74.1923 82.1923ZM15.5769 82.1923L16.3051 81.5069L16.2998 81.5013L15.5769 82.1923ZM15.4615 19.7692L14.7333 19.0839L15.4615 19.7692ZM28.6154 30.3846L27.8328 29.7621L28.6154 30.3846ZM28.5 71.5769L27.7087 72.1884L27.7165 72.1984L27.7244 72.2082L28.5 71.5769ZM45.1154 79.1923L45.099 80.1922L45.1072 80.1923H45.1154V79.1923ZM61.2692 71.5769L62.0605 72.1884L61.2692 71.5769ZM61.1538 30.2692L61.9452 29.6577L61.9365 29.6467L61.1538 30.2692ZM45.1154 7.88461V8.88461C56.8657 8.88461 66.2824 12.8272 73.4591 20.5647L74.1923 19.8846L74.9255 19.2046C67.333 11.019 57.3651 6.88461 45.1154 6.88461V7.88461ZM74.1923 19.8846L73.4591 20.5647C80.6465 28.3135 84.3846 38.4424 84.3846 51.0385H85.3846H86.3846C86.3846 38.0191 82.5073 27.3788 74.9255 19.2046L74.1923 19.8846ZM85.3846 51.0385H84.3846C84.3846 63.753 80.6448 73.8774 73.4641 81.5069L74.1923 82.1923L74.9205 82.8777C82.509 74.8149 86.3846 64.1701 86.3846 51.0385H85.3846ZM74.1923 82.1923L73.4641 81.5069C66.2929 89.1263 56.7621 92.9615 45 92.9615V93.9615V94.9615C57.2379 94.9615 67.3225 90.9506 74.9205 82.8777L74.1923 82.1923ZM45 93.9615V92.9615C33.004 92.9615 23.4744 89.1243 16.3051 81.5069L15.5769 82.1923L14.8487 82.8777C22.4487 90.9526 32.5345 94.9615 45 94.9615V93.9615ZM15.5769 82.1923L16.2998 81.5013C9.013 73.8782 5.38462 63.7603 5.38462 51.0385H4.38462H3.38462C3.38462 64.1628 7.14085 74.8141 14.8541 82.8833L15.5769 82.1923ZM4.38462 51.0385H5.38462C5.38462 38.3135 9.01498 28.0778 16.1897 20.4546L15.4615 19.7692L14.7333 19.0839C7.13886 27.153 3.38462 37.9173 3.38462 51.0385H4.38462ZM15.4615 19.7692L16.1897 20.4546C23.3609 12.8352 33.0071 8.88461 45.1154 8.88461V7.88461V6.88461C32.5314 6.88461 22.3314 11.0109 14.7333 19.0839L15.4615 19.7692ZM44.8846 22.6538V21.6538C37.7765 21.6538 32.0637 24.4433 27.8328 29.7621L28.6154 30.3846L29.398 31.0071C33.244 26.1721 38.3773 23.6538 44.8846 23.6538V22.6538ZM28.6154 30.3846L27.8328 29.7621C23.6175 35.0613 21.5 42.1087 21.5 50.8077H22.5H23.5C23.5 42.4297 25.5363 35.8618 29.398 31.0071L28.6154 30.3846ZM22.5 50.8077H21.5C21.5 59.7304 23.614 66.8894 27.7087 72.1884L28.5 71.5769L29.2913 70.9655C25.5398 66.1106 23.5 59.4234 23.5 50.8077H22.5ZM28.5 71.5769L27.7244 72.2082C31.9693 77.4233 37.799 80.0725 45.099 80.1922L45.1154 79.1923L45.1318 78.1924C38.3549 78.0813 33.1076 75.6536 29.2756 70.9456L28.5 71.5769ZM45.1154 79.1923V80.1923C52.2077 80.1923 57.9332 77.5295 62.0605 72.1884L61.2692 71.5769L60.4779 70.9655C56.7591 75.7781 51.6385 78.1923 45.1154 78.1923V79.1923ZM61.2692 71.5769L62.0605 72.1884C66.1609 66.882 68.1538 59.718 68.1538 50.8077H67.1538H66.1538C66.1538 59.4358 64.2237 66.118 60.4779 70.9655L61.2692 71.5769ZM67.1538 50.8077H68.1538C68.1538 41.995 66.0373 34.9535 61.9451 29.6578L61.1538 30.2692L60.3626 30.8807C64.1166 35.7388 66.1538 42.3127 66.1538 50.8077H67.1538ZM61.1538 30.2692L61.9365 29.6467C57.6977 24.318 51.9796 21.6538 44.8846 21.6538V22.6538V23.6538C51.405 23.6538 56.5331 26.0666 60.3712 30.8918L61.1538 30.2692ZM98.46 9.84615L98.4629 8.84616L97.46 8.84333V9.84615H98.46ZM139.306 9.96154L139.303 10.9615H139.306V9.96154ZM159.268 15.7308L158.665 16.5286L158.668 16.5308L159.268 15.7308ZM163.537 45.7308L164.377 46.2729L163.537 45.7308ZM153.96 53.4615L153.589 52.5331L150.447 53.7896L153.767 54.4427L153.96 53.4615ZM166.075 72.6154H167.075V72.5696L167.071 72.5239L166.075 72.6154ZM166.306 76.1923L167.304 76.1336L167.303 76.1077L167.3 76.0819L166.306 76.1923ZM166.768 80.9231L167.763 80.8236L167.758 80.7749L167.748 80.727L166.768 80.9231ZM167.345 85.3077L166.353 85.4399L166.355 85.4491L167.345 85.3077ZM168.383 89.5769L169.312 89.2055L168.383 89.5769ZM169.999 92.1154V93.1154H172.761L170.639 91.3472L169.999 92.1154ZM151.306 92.1154L150.428 92.5942L150.713 93.1154H151.306V92.1154ZM149.922 87.3846L150.914 87.2606L150.91 87.2303L150.904 87.2003L149.922 87.3846ZM149.114 80.1154L148.117 80.1921V80.1921L149.114 80.1154ZM148.768 75.1538H149.768V75.0941L149.761 75.0347L148.768 75.1538ZM144.383 63.1538L145.09 62.4467L145.081 62.4377L145.072 62.4288L144.383 63.1538ZM116.345 59.8077V58.8077H115.345V59.8077H116.345ZM116.345 92V93H117.345V92H116.345ZM98.46 92H97.46V93H98.46V92ZM116.345 24.1538V23.1538H115.345V24.1538H116.345ZM116.345 46.8846H115.345V47.8846H116.345V46.8846ZM145.075 44.4615L145.579 45.3253L145.075 44.4615ZM145.191 26.4615L144.687 27.3253L144.701 27.3333L144.715 27.3408L145.191 26.4615ZM98.46 9.84615L98.4572 10.8462L139.303 10.9615L139.306 9.96154L139.309 8.96154L98.4629 8.84616L98.46 9.84615ZM139.306 9.96154V10.9615C147.233 10.9615 153.693 12.7725 158.665 16.5286L159.268 15.7308L159.871 14.9329C154.457 10.8429 147.533 8.96154 139.306 8.96154V9.96154ZM159.268 15.7308L158.668 16.5308C163.44 20.1101 165.999 25.6656 165.999 33.2692H166.999H167.999C167.999 25.1806 165.249 18.9668 159.868 14.9308L159.268 15.7308ZM166.999 33.2692H165.999C165.999 37.8299 164.889 41.791 162.697 45.1886L163.537 45.7308L164.377 46.2729C166.801 42.5167 167.999 38.1701 167.999 33.2692H166.999ZM163.537 45.7308L162.697 45.1886C160.511 48.5759 157.452 50.9876 153.589 52.5331L153.96 53.4615L154.331 54.39C158.545 52.7047 161.947 50.0395 164.377 46.2729L163.537 45.7308ZM153.96 53.4615L153.767 54.4427C156.998 55.0783 159.539 56.8648 161.422 59.8507C163.325 62.8688 164.568 67.1374 165.08 72.7068L166.075 72.6154L167.071 72.5239C166.544 66.7857 165.249 62.1697 163.114 58.7839C160.958 55.3659 157.961 53.2294 154.153 52.4803L153.96 53.4615ZM166.075 72.6154H165.075C165.075 72.9891 165.077 74.1809 165.312 76.3027L166.306 76.1923L167.3 76.0819C167.074 74.0498 167.075 72.934 167.075 72.6154H166.075ZM166.306 76.1923L165.308 76.251C165.422 78.1954 165.54 79.8842 165.787 81.1192L166.768 80.9231L167.748 80.727C167.534 79.6543 167.421 78.1123 167.304 76.1336L166.306 76.1923ZM166.768 80.9231L165.773 81.0226C165.89 82.1976 166.127 83.7416 166.353 85.4399L167.345 85.3077L168.336 85.1755C168.101 83.4123 167.876 81.9562 167.763 80.8236L166.768 80.9231ZM167.345 85.3077L166.355 85.4491C166.591 87.1056 166.952 88.692 167.455 89.9483L168.383 89.5769L169.312 89.2055C168.891 88.1542 168.56 86.7406 168.335 85.1663L167.345 85.3077ZM168.383 89.5769L167.455 89.9483C167.935 91.1501 168.473 92.1456 169.358 92.8836L169.999 92.1154L170.639 91.3472C170.14 90.9314 169.754 90.3115 169.312 89.2055L168.383 89.5769ZM169.999 92.1154V91.1154H151.306V92.1154V93.1154H169.999V92.1154ZM151.306 92.1154L152.184 91.6365C151.569 90.509 151.134 89.024 150.914 87.2606L149.922 87.3846L148.929 87.5087C149.17 89.4375 149.659 91.1833 150.428 92.5942L151.306 92.1154ZM149.922 87.3846L150.904 87.2003C150.57 85.4145 150.342 83.0422 150.111 80.0387L149.114 80.1154L148.117 80.1921C148.347 83.1885 148.581 85.6624 148.939 87.5689L149.922 87.3846ZM149.114 80.1154L150.111 80.0387C149.878 77.0047 149.768 75.4496 149.768 75.1538H148.768H147.768C147.768 75.5504 147.889 77.2261 148.117 80.1921L149.114 80.1154ZM148.768 75.1538L149.761 75.0347C149.062 69.2118 147.645 65.0014 145.09 62.4467L144.383 63.1538L143.676 63.861C145.737 65.9217 147.089 69.5575 147.775 75.273L148.768 75.1538ZM144.383 63.1538L145.072 62.4288C142.484 59.9704 138.239 58.8077 132.383 58.8077V59.8077V60.8077C138.065 60.8077 141.667 61.9527 143.694 63.8788L144.383 63.1538ZM132.383 59.8077V58.8077H116.345V59.8077V60.8077H132.383V59.8077ZM116.345 59.8077H115.345V92H116.345H117.345V59.8077H116.345ZM116.345 92V91H98.46V92V93H116.345V92ZM98.46 92H99.46V9.84615H98.46H97.46V92H98.46ZM116.345 24.1538H115.345V46.8846H116.345H117.345V24.1538H116.345ZM116.345 46.8846V47.8846H133.422V46.8846V45.8846H116.345V46.8846ZM133.422 46.8846V47.8846C138.469 47.8846 142.594 47.0668 145.579 45.3253L145.075 44.4615L144.572 43.5978C142.018 45.0871 138.297 45.8846 133.422 45.8846V46.8846ZM145.075 44.4615L145.579 45.3253C148.755 43.4727 150.345 40.0693 150.345 35.2308H149.345H148.345C148.345 39.623 146.934 42.2196 144.572 43.5978L145.075 44.4615ZM149.345 35.2308H150.345C150.345 30.6355 148.876 27.3207 145.667 25.5822L145.191 26.4615L144.715 27.3408C147.044 28.6024 148.345 31.0568 148.345 35.2308H149.345ZM145.191 26.4615L145.695 25.5978C142.708 23.8558 138.929 23.1538 134.229 23.1538V24.1538V25.1538C138.761 25.1538 142.135 25.8365 144.687 27.3253L145.191 26.4615ZM134.229 24.1538V23.1538H116.345V24.1538V25.1538H134.229V24.1538ZM221.885 9.73076L222.819 9.37548L222.574 8.73076H221.885V9.73076ZM253.154 92V93H254.604L254.089 91.6447L253.154 92ZM234.231 92L233.288 92.3322L233.523 93H234.231V92ZM227.769 73.6538L228.712 73.3216L228.477 72.6538H227.769V73.6538ZM197.192 73.6538V72.6538H196.493L196.253 73.3112L197.192 73.6538ZM190.5 92V93H191.2L191.439 92.3427L190.5 92ZM172.038 92L171.104 91.6447L170.589 93H172.038V92ZM203.308 9.73076V8.73076H202.618L202.373 9.37548L203.308 9.73076ZM223.385 60.5V61.5H224.8L224.327 60.1657L223.385 60.5ZM212.538 29.9231L213.481 29.5888L212.543 26.9459L211.597 29.5856L212.538 29.9231ZM201.577 60.5L200.636 60.1625L200.156 61.5H201.577V60.5ZM221.885 9.73076L220.95 10.0861L252.219 92.3553L253.154 92L254.089 91.6447L222.819 9.37548L221.885 9.73076ZM253.154 92V91H234.231V92V93H253.154V92ZM234.231 92L235.174 91.6678L228.712 73.3216L227.769 73.6538L226.826 73.986L233.288 92.3322L234.231 92ZM227.769 73.6538V72.6538H197.192V73.6538V74.6538H227.769V73.6538ZM197.192 73.6538L196.253 73.3112L189.561 91.6573L190.5 92L191.439 92.3427L198.132 73.9965L197.192 73.6538ZM190.5 92V91H172.038V92V93H190.5V92ZM172.038 92L172.973 92.3553L204.242 10.0861L203.308 9.73076L202.373 9.37548L171.104 91.6447L172.038 92ZM203.308 9.73076V10.7308H221.885V9.73076V8.73076H203.308V9.73076ZM223.385 60.5L224.327 60.1657L213.481 29.5888L212.538 29.9231L211.596 30.2574L222.442 60.8343L223.385 60.5ZM212.538 29.9231L211.597 29.5856L200.636 60.1625L201.577 60.5L202.518 60.8375L213.48 30.2605L212.538 29.9231ZM201.577 60.5V61.5H223.385V60.5V59.5H201.577V60.5ZM260.027 92H259.027V93H260.027V92ZM260.027 9.84615V8.84615H259.027V9.84615H260.027ZM278.374 9.84615L279.226 9.32275L278.933 8.84615H278.374V9.84615ZM312.181 64.8846L311.329 65.408L313.181 68.4232V64.8846H312.181ZM312.181 9.84615V8.84615H311.181V9.84615H312.181ZM329.489 9.84615H330.489V8.84615H329.489V9.84615ZM329.489 92V93H330.489V92H329.489ZM311.489 92L310.638 92.5252L310.931 93H311.489V92ZM277.45 36.8462L278.301 36.321L276.45 33.3217V36.8462H277.45ZM277.45 92V93H278.45V92H277.45ZM260.027 92H261.027V9.84615H260.027H259.027V92H260.027ZM260.027 9.84615V10.8462H278.374V9.84615V8.84615H260.027V9.84615ZM278.374 9.84615L277.521 10.3696L311.329 65.408L312.181 64.8846L313.033 64.3612L279.226 9.32275L278.374 9.84615ZM312.181 64.8846H313.181V9.84615H312.181H311.181V64.8846H312.181ZM312.181 9.84615V10.8462H329.489V9.84615V8.84615H312.181V9.84615ZM329.489 9.84615H328.489V92H329.489H330.489V9.84615H329.489ZM329.489 92V91H311.489V92V93H329.489V92ZM311.489 92L312.34 91.4748L278.301 36.321L277.45 36.8462L276.599 37.3713L310.638 92.5252L311.489 92ZM277.45 36.8462H276.45V92H277.45H278.45V36.8462H277.45ZM277.45 92V91H260.027V92V93H277.45V92ZM418.706 47.5769L419.706 47.5795L419.708 46.5769H418.706V47.5769ZM418.59 92V93H419.588L419.59 92.0026L418.59 92ZM407.167 92L406.184 92.1821L406.335 93H407.167V92ZM405.436 82.6538L406.42 82.4718L406.022 80.3269L404.657 82.0277L405.436 82.6538ZM352.821 82.0769L353.565 81.4085L353.56 81.4032L352.821 82.0769ZM353.398 20.2308L352.67 19.5447L352.665 19.5503L353.398 20.2308ZM417.552 36.8462V37.8462H418.681L418.544 36.7254L417.552 36.8462ZM400.129 36.8462L399.146 37.032L399.3 37.8462H400.129V36.8462ZM394.129 26.8077L394.729 26.0077L394.724 26.0041L394.129 26.8077ZM396.782 74.4615L397.466 75.1911L397.472 75.1857L397.478 75.1801L396.782 74.4615ZM402.552 60.9615L403.551 61.0032L403.594 59.9615H402.552V60.9615ZM384.206 60.9615H383.206V61.9615H384.206V60.9615ZM384.206 47.5769V46.5769H383.206V47.5769H384.206ZM418.706 47.5769L417.706 47.5743L417.59 91.9974L418.59 92L419.59 92.0026L419.706 47.5795L418.706 47.5769ZM418.59 92V91H407.167V92V93H418.59V92ZM407.167 92L408.15 91.8179L406.42 82.4718L405.436 82.6538L404.453 82.8359L406.184 92.1821L407.167 92ZM405.436 82.6538L404.657 82.0277C398.748 89.3851 390.854 92.9615 380.744 92.9615V93.9615V94.9615C391.403 94.9615 399.893 91.1534 406.216 83.28L405.436 82.6538ZM380.744 93.9615V92.9615C369.578 92.9615 360.512 89.1396 353.565 81.4086L352.821 82.0769L352.077 82.7453C359.438 90.9373 369.064 94.9615 380.744 94.9615V93.9615ZM352.821 82.0769L353.56 81.4032C346.606 73.776 343.09 63.7637 343.09 51.2692H342.09H341.09C341.09 64.1593 344.728 74.6855 352.082 82.7507L352.821 82.0769ZM342.09 51.2692H343.09C343.09 38.7948 346.825 28.7793 354.131 20.9112L353.398 20.2308L352.665 19.5503C344.971 27.836 341.09 38.359 341.09 51.2692H342.09ZM353.398 20.2308L354.125 20.9168C361.539 13.0534 370.962 9.11538 382.475 9.11538V8.11538V7.11538C370.449 7.11538 360.487 11.2543 352.67 19.5448L353.398 20.2308ZM382.475 8.11538V9.11538C391.734 9.11538 399.348 11.7063 405.609 16.8496L406.244 16.0769L406.879 15.3042C400.217 9.83216 392.139 7.11538 382.475 7.11538V8.11538ZM406.244 16.0769L405.609 16.8496C411.869 21.9919 415.551 28.6802 416.559 36.9669L417.552 36.8462L418.544 36.7254C417.475 27.9352 413.542 20.7773 406.879 15.3042L406.244 16.0769ZM417.552 36.8462V35.8462H400.129V36.8462V37.8462H417.552V36.8462ZM400.129 36.8462L401.111 36.6603C400.263 32.1754 398.182 28.5977 394.729 26.0077L394.129 26.8077L393.529 27.6077C396.537 29.8638 398.379 32.9785 399.146 37.032L400.129 36.8462ZM394.129 26.8077L394.724 26.0041C391.415 23.5532 387.277 22.2308 382.359 22.2308V23.2308V24.2308C386.904 24.2308 390.611 25.4467 393.533 27.6112L394.129 26.8077ZM382.359 23.2308V22.2308C375.151 22.2308 369.546 24.8938 365.421 30.1105L366.206 30.7308L366.99 31.351C370.711 26.6446 375.722 24.2308 382.359 24.2308V23.2308ZM366.206 30.7308L365.421 30.1105C361.314 35.3048 359.321 42.3588 359.321 51.2692H360.321H361.321C361.321 42.6412 363.251 36.0798 366.99 31.351L366.206 30.7308ZM360.321 51.2692H359.321C359.321 60.4032 361.311 67.5757 365.421 72.7741L366.206 72.1538L366.99 71.5336C363.254 66.8089 361.321 60.1353 361.321 51.2692H360.321ZM366.206 72.1538L365.421 72.7741C369.567 78.0178 375.535 80.5385 382.936 80.5385V79.5385V78.5385C376.03 78.5385 370.69 76.213 366.99 71.5336L366.206 72.1538ZM382.936 79.5385V80.5385C388.686 80.5385 393.56 78.8536 397.466 75.1911L396.782 74.4615L396.099 73.732C392.621 76.9926 388.264 78.5385 382.936 78.5385V79.5385ZM396.782 74.4615L397.478 75.1801C401.255 71.5245 403.31 66.7744 403.551 61.0032L402.552 60.9615L401.553 60.9199C401.331 66.2256 399.463 70.4755 396.087 73.7429L396.782 74.4615ZM402.552 60.9615V59.9615H384.206V60.9615V61.9615H402.552V60.9615ZM384.206 60.9615H385.206V47.5769H384.206H383.206V60.9615H384.206ZM384.206 47.5769V48.5769H418.706V47.5769V46.5769H384.206V47.5769ZM494.72 9.84615H495.72V8.84615H494.72V9.84615ZM494.72 24.6154V25.6154H495.72V24.6154H494.72ZM450.989 24.6154V23.6154H449.989V24.6154H450.989ZM450.989 42.5H449.989V43.5H450.989V42.5ZM491.143 42.5H492.143V41.5H491.143V42.5ZM491.143 56.6923V57.6923H492.143V56.6923H491.143ZM450.989 56.6923V55.6923H449.989V56.6923H450.989ZM450.989 76.8846H449.989V77.8846H450.989V76.8846ZM495.527 76.8846H496.527V75.8846H495.527V76.8846ZM495.527 92V93H496.527V92H495.527ZM433.104 92H432.104V93H433.104V92ZM433.104 9.84615V8.84615H432.104V9.84615H433.104ZM494.72 9.84615H493.72V24.6154H494.72H495.72V9.84615H494.72ZM494.72 24.6154V23.6154H450.989V24.6154V25.6154H494.72V24.6154ZM450.989 24.6154H449.989V42.5H450.989H451.989V24.6154H450.989ZM450.989 42.5V43.5H491.143V42.5V41.5H450.989V42.5ZM491.143 42.5H490.143V56.6923H491.143H492.143V42.5H491.143ZM491.143 56.6923V55.6923H450.989V56.6923V57.6923H491.143V56.6923ZM450.989 56.6923H449.989V76.8846H450.989H451.989V56.6923H450.989ZM450.989 76.8846V77.8846H495.527V76.8846V75.8846H450.989V76.8846ZM495.527 76.8846H494.527V92H495.527H496.527V76.8846H495.527ZM495.527 92V91H433.104V92V93H495.527V92ZM433.104 92H434.104V9.84615H433.104H432.104V92H433.104ZM433.104 9.84615V10.8462H494.72V9.84615V8.84615H433.104V9.84615Z" fill="white" mask="url(#path-2-outside-1_873_394)"/>
</svg>
