<svg width="58" height="58" viewBox="0 0 58 58" fill="none" xmlns="http://www.w3.org/2000/svg">
<circle cx="29" cy="29" r="28" stroke="#D9D9D9" stroke-width="2"/>
<path d="M34.9639 40.2434V40.3147H21.3447V40.2434H34.9639ZM17.8281 38.5256C18.1034 39.2223 18.658 39.7756 19.3545 40.051V40.1272C18.9934 39.9888 18.6606 39.778 18.3818 39.4993C18.1029 39.2203 17.8914 38.887 17.7529 38.5256H17.8281ZM38.3105 39.0149C38.1525 39.265 37.9568 39.4916 37.7246 39.6819C37.4919 39.8726 37.2306 40.0211 36.9541 40.1272V40.051C37.2147 39.948 37.4605 39.8076 37.6797 39.6282C37.899 39.4485 38.0846 39.2349 38.2363 39.0002L38.3105 39.0149ZM40.1426 30.8079L38.8848 37.0999L38.8154 37.0852L40.0732 30.7942L40.1426 30.8079ZM17.6377 28.5637V36.5354H17.5664V28.5637H17.6377ZM38.6035 26.6877C38.6694 26.713 38.7349 26.7395 38.7988 26.7698C39.171 26.9459 39.4996 27.2024 39.7607 27.5208C40.0218 27.839 40.2087 28.2113 40.3086 28.6106C40.3257 28.6792 40.3387 28.7491 40.3506 28.8186L40.2783 28.804C40.1125 27.8831 39.4751 27.1043 38.6035 26.761V26.6877ZM36.6133 26.5022V26.5735H34.7646L34.7764 26.5022H36.6133ZM22.0068 26.5022V26.5735H19.627V26.5022H22.0068ZM24.6113 26.0588C24.421 26.1937 24.215 26.3046 23.9971 26.3879V26.3108C24.0942 26.2725 24.1897 26.2295 24.2822 26.1799C24.374 26.1308 24.4616 26.0749 24.5469 26.0159L24.6113 26.0588ZM33.6953 20.8811L33.0908 24.5129H33.0176L33.625 20.8694L33.6953 20.8811ZM28.2207 20.9768L25.8691 24.5051L25.8096 24.4661L28.1621 20.9377L28.2207 20.9768ZM31.1797 18.4504C30.8565 18.5311 30.5429 18.652 30.2461 18.8108C29.949 18.9697 29.6738 19.1643 29.4268 19.3889L29.3672 19.3489C29.6221 19.1154 29.9059 18.9136 30.2129 18.7493C30.5192 18.5853 30.8444 18.4615 31.1797 18.3792V18.4504ZM33.5439 18.7571C33.5691 18.7868 33.5917 18.8183 33.6143 18.8499L33.5117 18.8323L33.4902 18.804L33.4629 18.7747V18.6702C33.4909 18.6981 33.5183 18.7268 33.5439 18.7571Z" fill="#C09D78" stroke="#C09D78" stroke-width="1.99001"/>
<path d="M23.0986 26.5381V40.2786V26.5381Z" fill="#C09D78"/>
<path d="M23.0986 26.5381V40.2786" stroke="#C09D78" stroke-width="2.98501"/>
</svg>
