<svg width="58" height="58" viewBox="0 0 58 58" fill="none" xmlns="http://www.w3.org/2000/svg">
<circle cx="29" cy="29" r="28" stroke="#D9D9D9" stroke-width="2"/>
<path d="M32.5306 27.8163C33.1781 27.8163 33.799 28.0735 34.2569 28.5313C34.7147 28.9891 34.9719 29.6101 34.9719 30.2576V37.038C34.9719 38.621 34.3431 40.1392 33.2237 41.2585C32.1044 42.3779 30.5862 43.0067 29.0032 43.0067C27.4201 43.0067 25.902 42.3779 24.7826 41.2585C23.6632 40.1392 23.0344 38.621 23.0344 37.038V30.2576C23.0344 29.6101 23.2916 28.9891 23.7494 28.5313C24.2073 28.0735 24.8282 27.8163 25.4757 27.8163H32.5306ZM32.5306 29.4438H25.4757C25.2599 29.4438 25.0529 29.5295 24.9003 29.6822C24.7477 29.8348 24.6619 30.0418 24.6619 30.2576V37.038C24.6619 38.1893 25.1193 39.2935 25.9334 40.1077C26.7476 40.9218 27.8518 41.3792 29.0032 41.3792C30.1545 41.3792 31.2587 40.9218 32.0729 40.1077C32.887 39.2935 33.3444 38.1893 33.3444 37.038V30.2576C33.3444 30.0418 33.2586 29.8348 33.106 29.6822C32.9534 29.5295 32.7464 29.4438 32.5306 29.4438ZM18.4208 27.8163H22.9302C22.4945 28.2697 22.1883 28.8318 22.0437 29.4438H18.4208C18.205 29.4438 17.998 29.5295 17.8454 29.6822C17.6928 29.8348 17.607 30.0418 17.607 30.2576V35.9529C17.6066 36.4975 17.7428 37.0334 18.0031 37.5117C18.2634 37.9899 18.6396 38.3952 19.0971 38.6905C19.5546 38.9858 20.0789 39.1615 20.6219 39.2017C21.165 39.2419 21.7094 39.1452 22.2054 38.9205C22.3497 39.4522 22.557 39.9578 22.8174 40.4309C22.074 40.7557 21.2614 40.8902 20.453 40.8223C19.6446 40.7543 18.8659 40.486 18.1872 40.0415C17.5085 39.5971 16.9513 38.9905 16.5658 38.2767C16.1804 37.5628 15.9789 36.7642 15.9795 35.9529V30.2576C15.9795 29.6101 16.2367 28.9891 16.6945 28.5313C17.1524 28.0735 17.7733 27.8163 18.4208 27.8163ZM39.579 27.8163C40.2265 27.8163 40.8474 28.0735 41.3053 28.5313C41.7631 28.9891 42.0203 29.6101 42.0203 30.2576V35.954C42.0206 36.7647 41.8191 37.5627 41.4339 38.2761C41.0487 38.9894 40.4919 39.5956 39.8138 40.0399C39.1357 40.4843 38.3577 40.7528 37.5499 40.8212C36.7421 40.8896 35.9299 40.7559 35.1868 40.432L35.2475 40.3213C35.4797 39.8808 35.6674 39.4131 35.802 38.9227C36.2977 39.1457 36.8414 39.2411 37.3835 39.2C37.9256 39.159 38.4487 38.9828 38.9052 38.6876C39.3617 38.3924 39.737 37.9876 39.9968 37.5101C40.2567 37.0326 40.3928 36.4976 40.3928 35.954V30.2576C40.3928 30.0419 40.3072 29.8351 40.1548 29.6825C40.0024 29.53 39.7957 29.4441 39.5801 29.4438H35.9636C35.8187 28.8317 35.5122 28.2696 35.0761 27.8163H39.579ZM28.9999 19.136C29.4986 19.136 29.9924 19.2342 30.4532 19.4251C30.9139 19.6159 31.3326 19.8956 31.6852 20.2483C32.0379 20.6009 32.3176 21.0196 32.5084 21.4803C32.6993 21.9411 32.7975 22.4349 32.7975 22.9336C32.7975 23.4323 32.6993 23.9261 32.5084 24.3869C32.3176 24.8476 32.0379 25.2663 31.6852 25.6189C31.3326 25.9716 30.9139 26.2513 30.4532 26.4421C29.9924 26.633 29.4986 26.7312 28.9999 26.7312C27.9927 26.7312 27.0268 26.3311 26.3146 25.6189C25.6024 24.9067 25.2023 23.9408 25.2023 22.9336C25.2023 21.9264 25.6024 20.9605 26.3146 20.2483C27.0268 19.5361 27.9927 19.136 28.9999 19.136ZM37.6834 20.221C38.1109 20.221 38.5342 20.3052 38.9291 20.4688C39.324 20.6324 39.6829 20.8722 39.9851 21.1744C40.2874 21.4767 40.5272 21.8355 40.6908 22.2304C40.8543 22.6254 40.9385 23.0487 40.9385 23.4761C40.9385 23.9036 40.8543 24.3269 40.6908 24.7218C40.5272 25.1167 40.2874 25.4756 39.9851 25.7778C39.6829 26.0801 39.324 26.3199 38.9291 26.4834C38.5342 26.647 38.1109 26.7312 37.6834 26.7312C36.8201 26.7312 35.9922 26.3883 35.3817 25.7778C34.7713 25.1674 34.4283 24.3394 34.4283 23.4761C34.4283 22.6128 34.7713 21.7849 35.3817 21.1744C35.9922 20.564 36.8201 20.221 37.6834 20.221ZM20.3164 20.221C20.7438 20.221 21.1671 20.3052 21.562 20.4688C21.957 20.6324 22.3158 20.8722 22.6181 21.1744C22.9203 21.4767 23.1601 21.8355 23.3237 22.2304C23.4873 22.6254 23.5715 23.0487 23.5715 23.4761C23.5715 23.9036 23.4873 24.3269 23.3237 24.7218C23.1601 25.1167 22.9203 25.4756 22.6181 25.7778C22.3158 26.0801 21.957 26.3199 21.562 26.4834C21.1671 26.647 20.7438 26.7312 20.3164 26.7312C19.4531 26.7312 18.6251 26.3883 18.0147 25.7778C17.4042 25.1674 17.0613 24.3394 17.0613 23.4761C17.0613 22.6128 17.4042 21.7849 18.0147 21.1744C18.6251 20.564 19.4531 20.221 20.3164 20.221ZM28.9999 20.7635C28.4244 20.7635 27.8724 20.9922 27.4654 21.3991C27.0585 21.8061 26.8298 22.3581 26.8298 22.9336C26.8298 23.5091 27.0585 24.0611 27.4654 24.4681C27.8724 24.875 28.4244 25.1037 28.9999 25.1037C29.5754 25.1037 30.1274 24.875 30.5344 24.4681C30.9413 24.0611 31.17 23.5091 31.17 22.9336C31.17 22.3581 30.9413 21.8061 30.5344 21.3991C30.1274 20.9922 29.5754 20.7635 28.9999 20.7635ZM37.6834 21.8486C37.4697 21.8486 37.2581 21.8907 37.0606 21.9725C36.8631 22.0543 36.6837 22.1741 36.5326 22.3253C36.3814 22.4764 36.2616 22.6558 36.1798 22.8533C36.098 23.0507 36.0559 23.2624 36.0559 23.4761C36.0559 23.6899 36.098 23.9015 36.1798 24.099C36.2616 24.2964 36.3814 24.4758 36.5326 24.627C36.6837 24.7781 36.8631 24.898 37.0606 24.9798C37.2581 25.0616 37.4697 25.1037 37.6834 25.1037C38.1151 25.1037 38.5291 24.9322 38.8343 24.627C39.1395 24.3218 39.311 23.9078 39.311 23.4761C39.311 23.0445 39.1395 22.6305 38.8343 22.3253C38.5291 22.02 38.1151 21.8486 37.6834 21.8486ZM20.3164 21.8486C20.1026 21.8486 19.891 21.8907 19.6935 21.9725C19.4961 22.0543 19.3167 22.1741 19.1655 22.3253C19.0144 22.4764 18.8945 22.6558 18.8127 22.8533C18.7309 23.0507 18.6888 23.2624 18.6888 23.4761C18.6888 23.6899 18.7309 23.9015 18.8127 24.099C18.8945 24.2964 19.0144 24.4758 19.1655 24.627C19.3167 24.7781 19.4961 24.898 19.6935 24.9798C19.891 25.0616 20.1026 25.1037 20.3164 25.1037C20.748 25.1037 21.162 24.9322 21.4672 24.627C21.7725 24.3218 21.9439 23.9078 21.9439 23.4761C21.9439 23.0445 21.7725 22.6305 21.4672 22.3253C21.162 22.02 20.748 21.8486 20.3164 21.8486Z" fill="#C09D78"/>
</svg>
